<svg xmlns="http://www.w3.org/2000/svg" xmlns:xlink="http://www.w3.org/1999/xlink" height="923.63" viewBox="0 0 1196.962 923.63">
  <defs>
    <clipPath id="clip-path_3">
      <path   d="M281.308,193.739v5.182h3.822l-3.788-.508c-.013.1-.027.187-.061.4-.031.193-.047.3-.066.422a9.464,9.464,0,0,0-.116,1.424,55.874,55.874,0,0,1-1.387,11.579,58.232,58.232,0,0,1-15.832,29.557,77.441,77.441,0,0,1-20.555,14.554,134.124,134.124,0,0,1-29.347,10.34,228.429,228.429,0,0,1-25.459,4.446c-7.364.9-14.138,1.493-20.624,1.775-3.989.182-7.178.28-14.375.462-3.158.08-4.569.117-6.33.169a8.6,8.6,0,0,0-1.109.113c-.147.022-.2.029-.244.034l.411,3.8v-3.822H142.7v3.822l.285-3.812c-.112-.008-.215-.018-.465-.044-.575-.059-.852-.082-1.248-.092-9.439-.1-18.028-.414-26.232-1a271.928,271.928,0,0,1-31.372-4A160.7,160.7,0,0,1,55.087,260.5,92.1,92.1,0,0,1,31.5,247.38a58.833,58.833,0,0,1-20.821-30.288,69.348,69.348,0,0,1-2.6-14.822c-.043-.617-.114-1.221-.223-1.972-.031-.211-.054-.367-.112-.748-.069-.455-.1-.666-.135-.912l-3.786.525H7.644c0-2.718,0-2.718,0-5.423H3.822l3.774.6c.023-.145.048-.278.111-.6a12.705,12.705,0,0,0,.283-2.008,126.377,126.377,0,0,1,3.924-24.594,211.543,211.543,0,0,1,11.364-32.406A382.567,382.567,0,0,1,46.637,90.058a316.579,316.579,0,0,1,27.9-39.889A168.028,168.028,0,0,1,97.526,27.048a95.893,95.893,0,0,1,21.759-13.662A64.006,64.006,0,0,1,139.21,8.033c.573-.054,1.158-.117,1.889-.2l.913-.107.895-.1-.437-3.8V7.644h4.246V3.822l-.678,3.762c.035.006.084.017.205.043l.2.044a7.328,7.328,0,0,0,1.036.153c.466.054.987.1,1.994.2l.091.008c1.953.181,2.8.273,3.821.43a67.364,67.364,0,0,1,21.984,7.548,113.261,113.261,0,0,1,24.567,18.265,198.545,198.545,0,0,1,22.285,25.363A394.545,394.545,0,0,1,262.506,127.1a218.5,218.5,0,0,1,14.547,39.138c2.574,9.917,3.924,18.167,4.06,26.184a8.886,8.886,0,0,0,.179,1.538c.034.186.045.254.054.319l3.784-.54Zm7.644,0v-.272l-.038-.269c-.027-.188-.048-.315-.1-.594s-.059-.347-.059-.353c-.147-8.662-1.589-17.479-4.3-27.929a226.01,226.01,0,0,0-15.041-40.5,402.154,402.154,0,0,0-41.064-68.761,206.124,206.124,0,0,0-23.142-26.329A120.755,120.755,0,0,0,178.983,9.271,74.933,74.933,0,0,0,154.535.9c-1.2-.185-2.155-.288-4.26-.484l-.091-.008c-.965-.09-1.455-.137-2.008-.2a.985.985,0,0,1-.15-.021l-.142-.031c-.214-.047-.33-.071-.491-.1L147.057,0h-4.806l-.218.025-.918.107-.895.105c-.682.079-1.217.136-1.729.185a71.625,71.625,0,0,0-22.3,5.972A103.44,103.44,0,0,0,92.7,21.117,175.512,175.512,0,0,0,68.662,45.273,324.072,324.072,0,0,0,40.087,86.116a390.079,390.079,0,0,0-23.816,45.563A219.066,219.066,0,0,0,4.508,165.25,133.955,133.955,0,0,0,.357,191.332a7.129,7.129,0,0,1-.151.94c-.08.41-.116.6-.158.865l-.048.3v5.989l.036.261c.041.292.075.527.15,1.016.055.362.077.507.1.694.084.579.134,1.008.162,1.4a76.97,76.97,0,0,0,2.893,16.446,66.465,66.465,0,0,0,23.43,34.146A99.627,99.627,0,0,0,52.29,267.612a168.232,168.232,0,0,0,29.94,8.432,279.523,279.523,0,0,0,32.26,4.113c8.378.6,17.122.928,26.654,1.024.076,0,.222.015.6.053.321.033.471.047.677.063l.285.011h3.748l.2-.022c.177-.019.3-.036.547-.073l.235-.034c1.722-.05,3.127-.087,6.275-.167,7.249-.184,10.472-.282,14.522-.468,6.69-.291,13.658-.9,21.2-1.823a236.008,236.008,0,0,0,26.31-4.6,141.636,141.636,0,0,0,31.008-10.946,85.01,85.01,0,0,0,22.553-16,65.866,65.866,0,0,0,17.877-33.344,63.3,63.3,0,0,0,1.555-13.158,2.549,2.549,0,0,1,.034-.325c.011-.079.021-.141.05-.318.044-.275.066-.414.09-.6l.034-.253v-5.437Z" fill="none"/>
    </clipPath>
    <linearGradient id="linear-gradient_3" x1="0.007" y1="-0.007" x2="0.993" y2="1.007" gradientUnits="objectBoundingBox">
      <stop offset="0"/>
      <stop offset="0" stop-color="#ffa700"/>
      <stop offset="1" stop-color="#fad961"/>
      <stop offset="1"/>
    </linearGradient>
    <clipPath id="clip-path_4">
      <path   d="M307.711,207.743v5.668a14.378,14.378,0,0,0-.228,1.9,65.631,65.631,0,0,1-1.61,13.54,67.87,67.87,0,0,1-18.434,34.4,89.081,89.081,0,0,1-23.577,16.714A151.556,151.556,0,0,1,230.855,291.6a254.6,254.6,0,0,1-28.321,4.948c-7.607.929-15.243,1.635-22.879,1.968-7.579.346-15.143.471-22.708.693-.385.014-.769.1-1.154.139h-3.875c-.556-.042-1.111-.125-1.667-.139-9.63-.1-19.275-.416-28.891-1.109a302.622,302.622,0,0,1-34.8-4.435,180.645,180.645,0,0,1-32.011-9.008,105.272,105.272,0,0,1-26.854-14.954c-11.724-9.23-19.987-20.844-24.2-35.243a80.058,80.058,0,0,1-3.006-17.1C.4,216.128.171,214.908,0,213.675v-5.932a22.971,22.971,0,0,0,.385-2.411A142.719,142.719,0,0,1,4.8,177.614a236.281,236.281,0,0,1,12.65-36.088,424.277,424.277,0,0,1,25.8-49.351A352.444,352.444,0,0,1,74.136,48.021,188.823,188.823,0,0,1,99.864,22.16,109.35,109.35,0,0,1,124.609,6.638,74.256,74.256,0,0,1,147.7.443c1.325-.125,2.635-.291,3.96-.444h4.644a10.984,10.984,0,0,0,1.14.208c2.265.25,4.544.388,6.8.735a77.958,77.958,0,0,1,25.386,8.7,128.6,128.6,0,0,1,27.78,20.636,221.761,221.761,0,0,1,24.845,28.272,436.126,436.126,0,0,1,44.49,74.5,244.019,244.019,0,0,1,16.183,43.558c2.522,9.715,4.4,19.541,4.573,29.616A13.34,13.34,0,0,0,307.711,207.743Z" fill="none" clip-rule="evenodd"/>
    </clipPath>
    <linearGradient id="linear-gradient_4" x1="0.007" y1="-0.007" x2="0.993" y2="1.007" xlink:href="#linear-gradient_3"/>
    <clipPath id="clip-path_5">
      <path   d="M591.812,407.587v10.9h8.041l-7.97-1.068c-.027.2-.057.394-.128.836-.066.406-.1.624-.139.889a19.9,19.9,0,0,0-.243,3,117.557,117.557,0,0,1-2.918,24.359,122.508,122.508,0,0,1-33.306,62.182c-11.943,12.052-26.243,22.064-43.243,30.618-18.333,9.207-38.491,16.19-61.74,21.752A480.6,480.6,0,0,1,396.6,570.4c-15.493,1.891-29.744,3.14-43.389,3.735-8.393.384-15.1.588-30.242.973-6.644.169-9.612.247-13.318.356a18.1,18.1,0,0,0-2.334.238c-.31.046-.425.062-.514.072l.864,7.994v-8.041h-7.452v8.041l.6-8.018c-.235-.018-.452-.038-.979-.093-1.209-.124-1.792-.173-2.626-.194-19.858-.2-37.928-.87-55.187-2.114a572.088,572.088,0,0,1-66-8.406c-22.154-4.271-41.852-9.728-60.138-16.912-19.192-7.551-35.485-16.488-49.618-27.6-21.711-17.092-36.324-38.182-43.8-63.72a145.893,145.893,0,0,1-5.476-31.182c-.09-1.3-.239-2.568-.469-4.149-.065-.444-.114-.773-.236-1.574-.146-.957-.212-1.4-.284-1.92L8.041,419h8.041V407.587H8.041l7.941,1.267c.049-.3.1-.584.233-1.259a26.729,26.729,0,0,0,.6-4.225,265.872,265.872,0,0,1,8.255-51.741,445.042,445.042,0,0,1,23.907-68.176c13.3-30.573,29.481-61.307,49.14-93.989,19.342-32.121,38.295-59.451,58.687-83.917,16.006-19.173,31.721-35.118,48.375-48.643,15.07-12.272,30.081-21.8,45.776-28.741A134.651,134.651,0,0,1,292.869,16.9c1.205-.113,2.436-.246,3.974-.424.528-.061.967-.112,1.921-.225l1.882-.22-.919-7.988v8.041h8.932V8.041l-1.426,7.914c.075.014.176.035.432.091l.429.093a15.417,15.417,0,0,0,2.179.322c.98.114,2.076.221,4.195.418l.192.018c4.108.382,5.9.575,8.038.9,15.658,2.342,30.907,7.658,46.25,15.879,17.828,9.55,34.624,22.2,51.683,38.426a417.7,417.7,0,0,1,46.882,53.359c32.189,43.077,60.24,90.27,84.745,141.929,13.528,28.514,23.675,55.5,30.6,82.338,5.415,20.863,8.255,38.219,8.541,55.086a18.7,18.7,0,0,0,.376,3.235c.071.392.1.535.115.67l7.96-1.137Zm16.082,0v-.571l-.081-.565c-.057-.4-.1-.662-.208-1.25-.1-.562-.125-.729-.125-.742-.309-18.223-3.344-36.772-9.05-58.757-7.2-27.887-17.7-55.814-31.643-85.2-24.948-52.595-53.543-100.7-86.389-144.659a433.621,433.621,0,0,0-48.686-55.391C413.674,43.29,395.744,29.79,376.542,19.5c-16.9-9.057-33.894-14.98-51.432-17.6-2.531-.39-4.533-.606-8.962-1.018l-.191-.018C313.926.677,312.9.576,311.732.448A2.08,2.08,0,0,1,311.416.4l-.3-.065c-.451-.1-.694-.15-1.033-.211L309.378,0H299.267l-.458.053c-.549.063-.974.113-1.931.226L295,.5c-1.434.166-2.56.287-3.638.389a150.684,150.684,0,0,0-46.906,12.563c-17.1,7.565-33.306,17.85-49.422,30.974-17.516,14.225-33.943,30.893-50.577,50.819C123.483,120.4,104.074,148.39,84.335,181.17c-20,33.254-36.506,64.6-50.1,95.856A460.872,460.872,0,0,0,9.483,347.652a281.814,281.814,0,0,0-8.732,54.87A15,15,0,0,1,.433,404.5c-.169.862-.245,1.266-.333,1.821l-.1.629v12.6l.076.549c.085.615.159,1.108.315,2.136.116.762.162,1.067.219,1.46.177,1.217.283,2.12.34,2.946a161.93,161.93,0,0,0,6.087,34.6c8.437,28.809,25,52.71,49.292,71.836,15.457,12.15,33.105,21.831,53.676,29.925,19.276,7.573,39.91,13.289,62.987,17.738a588.055,588.055,0,0,0,67.867,8.653c17.626,1.27,36.022,1.952,56.073,2.154.159,0,.467.031,1.261.112.675.069.992.1,1.425.132l.6.022h7.886l.431-.047c.373-.04.628-.076,1.15-.153.4-.059.509-.072.494-.072,3.624-.106,6.578-.184,13.2-.352,15.249-.387,22.03-.594,30.55-.984,14.074-.613,28.734-1.9,44.61-3.836a496.518,496.518,0,0,0,55.351-9.674c24.394-5.836,45.7-13.217,65.235-23.028,18.486-9.3,34.2-20.307,47.448-33.671a138.568,138.568,0,0,0,37.609-70.149,133.189,133.189,0,0,0,3.271-27.682,5.355,5.355,0,0,1,.072-.683c.024-.165.045-.3.1-.669.093-.579.138-.87.19-1.256l.071-.532V407.587Z" fill="none"/>
    </clipPath>
    <linearGradient id="linear-gradient_5" x1="0.007" y1="-0.007" x2="0.993" y2="1.007" gradientUnits="objectBoundingBox">
      <stop offset="0"/>
      <stop offset="0" stop-color="#4275ff"/>
      <stop offset="1" stop-color="#83ceff"/>
      <stop offset="1"/>
    </linearGradient>
    <clipPath id="clip-path_6">
      <path   d="M644.142,434.875V446.74a30.106,30.106,0,0,0-.477,3.974,137.387,137.387,0,0,1-3.37,28.344,142.075,142.075,0,0,1-38.589,72.005c-14.4,14.534-31.134,25.82-49.355,34.987-22.008,11.053-45.209,18.654-69.1,24.369a532.933,532.933,0,0,1-59.285,10.357c-15.925,1.944-31.909,3.423-47.893,4.12-15.865.725-31.7.986-47.535,1.451-.805.029-1.61.2-2.416.29h-8.111c-1.163-.087-2.326-.261-3.489-.29-20.159-.2-40.348-.87-60.478-2.321a633.525,633.525,0,0,1-72.854-9.284c-22.873-4.41-45.3-10.328-67.009-18.857-20.129-7.92-39.126-17.871-56.213-31.3C33.43,545.262,16.133,520.951,7.306,490.808a167.587,167.587,0,0,1-6.292-35.8C.835,452.427.358,449.874,0,447.292V434.875a48.084,48.084,0,0,0,.805-5.048A298.758,298.758,0,0,1,10.05,371.8,494.613,494.613,0,0,1,36.531,296.26c15.537-35.713,33.937-69.945,54.006-103.308,19.444-32.289,40.5-63.447,64.653-92.429,16.372-19.612,34-38,53.857-54.134,15.925-12.968,32.982-24.166,51.8-32.492A155.443,155.443,0,0,1,309.188.928C311.961.667,314.7.319,317.478,0H327.2a22.965,22.965,0,0,0,2.386.435c4.742.522,9.513.812,14.225,1.538,18.817,2.814,36.412,9.255,53.142,18.219,21.5,11.517,40.527,26.429,58.152,43.2a464.22,464.22,0,0,1,52.008,59.182c36.442,48.768,67.068,101.016,93.132,155.963,13.956,29.417,25.736,59.647,33.877,91.182,5.278,20.337,9.215,40.906,9.572,62A27.913,27.913,0,0,0,644.142,434.875Z" fill="none" clip-rule="evenodd"/>
    </clipPath>
    <linearGradient id="linear-gradient_6" x1="0.007" y1="-0.007" x2="0.993" y2="1.007" xlink:href="#linear-gradient_5"/>
    <clipPath id="clip-path_7">
      <path   d="M440.212,303.179v8.109h5.981l-5.928-.795c-.02.149-.042.293-.1.622-.049.3-.074.464-.1.661a14.814,14.814,0,0,0-.181,2.228,87.44,87.44,0,0,1-2.171,18.119,91.126,91.126,0,0,1-24.775,46.253c-8.884,8.964-19.52,16.412-32.166,22.775-13.637,6.849-28.631,12.043-45.924,16.18a357.467,357.467,0,0,1-39.841,6.957c-11.524,1.407-22.125,2.336-32.274,2.778-6.243.285-11.233.438-22.495.724-4.942.126-7.15.184-9.906.265a13.457,13.457,0,0,0-1.736.177c-.231.034-.316.046-.382.053l.643,5.946V428.25h-5.543v5.981l.446-5.965c-.175-.013-.337-.029-.728-.069-.9-.092-1.333-.129-1.953-.144-14.771-.149-28.212-.647-41.05-1.573a425.546,425.546,0,0,1-49.093-6.253A251.47,251.47,0,0,1,86.2,407.648C71.928,402.031,59.809,395.384,49.3,387.12c-16.15-12.714-27.019-28.4-32.582-47.4a108.521,108.521,0,0,1-4.073-23.195c-.067-.966-.178-1.91-.349-3.086-.048-.331-.085-.575-.176-1.171-.109-.712-.158-1.042-.211-1.428l-5.925.821h5.981c0-4.253,0-4.253,0-8.486H5.981l5.906.942c.036-.226.075-.434.173-.937a19.883,19.883,0,0,0,.443-3.143,197.765,197.765,0,0,1,6.141-38.487,331.038,331.038,0,0,1,17.783-50.712A598.67,598.67,0,0,1,72.981,140.93c14.387-23.892,28.485-44.221,43.654-62.421,11.906-14.262,23.6-26.122,35.983-36.183a150.06,150.06,0,0,1,34.05-21.379,100.158,100.158,0,0,1,31.18-8.378c.9-.084,1.812-.183,2.956-.315l1.429-.168,1.4-.164-.684-5.942v5.981h6.644V5.981l-1.06,5.886c.056.01.131.026.321.068l.319.069a11.468,11.468,0,0,0,1.621.24c.729.085,1.544.164,3.12.311l.143.013c3.056.284,4.386.428,5.979.673a105.415,105.415,0,0,1,34.4,11.812c13.261,7.1,25.755,16.51,38.444,28.583a310.7,310.7,0,0,1,34.873,39.691C371.7,125.368,392.563,160.472,410.79,198.9c10.062,21.21,17.61,41.281,22.765,61.246,4.028,15.519,6.14,28.429,6.353,40.975a13.9,13.9,0,0,0,.28,2.406c.053.292.071.4.085.5l5.921-.845Zm11.962,0v-.425l-.06-.421c-.042-.295-.076-.492-.155-.93-.075-.418-.093-.542-.093-.552-.23-13.555-2.487-27.352-6.732-43.705-5.355-20.744-13.167-41.517-23.537-63.375-18.557-39.122-39.828-74.907-64.26-107.6a322.555,322.555,0,0,0-36.215-41.2C307.707,32.2,294.369,22.159,280.086,14.508A117.259,117.259,0,0,0,241.829,1.414c-1.883-.29-3.372-.451-6.667-.757L235.02.644c-1.51-.14-2.277-.215-3.142-.311A1.546,1.546,0,0,1,231.643.3l-.221-.048c-.336-.074-.517-.112-.769-.157L230.127,0h-7.521l-.341.039c-.408.047-.725.084-1.436.168l-1.4.164c-1.067.123-1.9.213-2.706.289a112.085,112.085,0,0,0-34.891,9.345,161.873,161.873,0,0,0-36.762,23.04c-13.029,10.581-25.248,22.98-37.621,37.8-15.6,18.714-30.034,39.531-44.717,63.915a610.422,610.422,0,0,0-37.269,71.3A342.812,342.812,0,0,0,7.054,258.6a209.624,209.624,0,0,0-6.5,40.815,11.155,11.155,0,0,1-.236,1.471c-.126.641-.182.942-.248,1.354L0,302.7v9.372l.057.409c.063.457.118.824.235,1.589.086.567.121.794.163,1.086.131.905.21,1.577.253,2.191a120.45,120.45,0,0,0,4.528,25.736C11.51,364.517,23.829,382.3,41.9,396.522c11.5,9.038,24.625,16.239,39.927,22.259a263.263,263.263,0,0,0,46.852,13.194,437.407,437.407,0,0,0,50.482,6.436c13.111.945,26.794,1.452,41.71,1.6.119,0,.347.023.938.084.5.052.738.074,1.06.1l.446.017h5.866l.32-.035c.277-.03.467-.056.856-.114.295-.044.378-.054.368-.053,2.7-.079,4.893-.137,9.819-.262,11.343-.288,16.387-.442,22.725-.732,10.469-.456,21.374-1.412,33.182-2.853a369.313,369.313,0,0,0,41.172-7.2c18.145-4.341,33.994-9.831,48.524-17.129,13.751-6.918,25.442-15.1,35.293-25.045a103.073,103.073,0,0,0,27.975-52.18,99.073,99.073,0,0,0,2.433-20.591,3.976,3.976,0,0,1,.054-.508c.018-.123.033-.22.078-.5.069-.431.1-.647.141-.934l.053-.4v-8.508Z" fill="none"/>
    </clipPath>
    <linearGradient id="linear-gradient_7" x1="0.007" y1="-0.007" x2="0.993" y2="1.007" gradientUnits="objectBoundingBox">
      <stop offset="0"/>
      <stop offset="0" stop-color="#fd5e5e"/>
      <stop offset="1" stop-color="#ff9a8b"/>
      <stop offset="1"/>
    </linearGradient>
    <clipPath id="clip-path_8">
      <path   d="M463.653,313.023v8.541a21.667,21.667,0,0,0-.344,2.861,98.888,98.888,0,0,1-2.426,20.4,102.266,102.266,0,0,1-27.776,51.829c-10.368,10.462-22.41,18.585-35.525,25.184-15.842,7.956-32.542,13.427-49.735,17.541a383.616,383.616,0,0,1-42.673,7.455c-11.463,1.4-22.968,2.464-34.474,2.965-11.419.522-22.818.71-34.216,1.044-.58.021-1.159.146-1.739.209h-5.839c-.837-.063-1.674-.188-2.511-.209-14.511-.146-29.043-.626-43.532-1.671a455.993,455.993,0,0,1-52.44-6.682,272.191,272.191,0,0,1-48.233-13.573c-14.489-5.7-28.163-12.863-40.462-22.532-17.666-13.908-30.116-31.407-36.47-53.1A120.63,120.63,0,0,1,.73,327.515c-.129-1.858-.472-3.7-.73-5.555v-8.938a34.612,34.612,0,0,0,.58-3.633,215.046,215.046,0,0,1,6.654-41.764A356.023,356.023,0,0,1,26.3,213.248a639.292,639.292,0,0,1,38.874-74.361c14-23.242,29.15-45.669,46.537-66.531C123.491,58.24,136.177,45,150.473,33.391A164.768,164.768,0,0,1,187.758,10a111.888,111.888,0,0,1,34.8-9.334c2-.188,3.971-.438,5.967-.668h7a16.531,16.531,0,0,0,1.717.313c3.413.376,6.848.585,10.239,1.107a117.467,117.467,0,0,1,38.251,13.114c15.477,8.29,29.172,19.024,41.858,31.094a334.145,334.145,0,0,1,37.436,42.6c26.231,35.1,48.276,72.712,67.037,112.262,10.046,21.175,18.524,42.934,24.385,65.633,3.8,14.638,6.633,29.444,6.89,44.625A20.093,20.093,0,0,0,463.653,313.023Z" fill="none" clip-rule="evenodd"/>
    </clipPath>
    <linearGradient id="linear-gradient_8" x1="0.007" y1="-0.007" x2="0.993" y2="1.007" xlink:href="#linear-gradient_7"/>
  </defs>
  <g   transform="translate(-361.75 -213)">
    <g  >
      <g   transform="translate(669.476 1114.737) rotate(-120)">
        <g   transform="translate(0 0)" clip-path="url(#clip-path_3)">
          <g   transform="translate(0 0)">
            <path   d="M0,0H288.952V281.308H0Z" fill="url(#linear-gradient_3)"/>
          </g>
        </g>
      </g>
      <g   transform="translate(960.45 982.774) rotate(150)">
        <g   transform="translate(0 0)" clip-path="url(#clip-path_4)">
          <g   transform="translate(0 0)">
            <path   d="M0,0H307.711V299.35H0Z" fill="url(#linear-gradient_4)"/>
          </g>
        </g>
      </g>
      <text id="Deliver_books_Voluntary" data-name="Deliver books
Voluntary" transform="translate(723.291 913.551)" fill="#ecf4f8" font-size="25" font-family="Gotham-Bold, Gotham" font-weight="700"><tspan x="-87.463" y="0">Deliver books</tspan><tspan font-size="37"><tspan x="-90.965" y="45">Voluntary</tspan></tspan></text>
    </g>
    <g  >
      <g   transform="translate(1254.765 255.136) rotate(60)">
        <g   transform="translate(0 0)" clip-path="url(#clip-path_5)">
          <g   transform="translate(0 0)">
            <path   d="M0,0H607.894V591.813H0Z" fill="url(#linear-gradient_5)"/>
          </g>
        </g>
      </g>
      <g   transform="translate(665.92 535.071) rotate(-30)">
        <g   transform="translate(0 0)" clip-path="url(#clip-path_6)">
          <g   transform="translate(0 0)">
            <path   d="M0,0H644.142V626.638H0Z" fill="url(#linear-gradient_6)"/>
          </g>
        </g>
      </g>
      <text id="Browse_book_Collections" data-name="Browse book
Collections" transform="translate(1386.533 655.492)" fill="#ecf4f8" font-size="47" font-family="Gotham-Bold, Gotham" font-weight="700"><tspan x="-311.14" y="0">Browse book</tspan><tspan font-size="64"><tspan x="-363.904" y="78">Collections</tspan></tspan></text>
    </g>
    <g  >
      <g   transform="translate(596.237 928.748) rotate(-120)">
        <g   transform="translate(0)" clip-path="url(#clip-path_7)">
          <g  >
            <path   d="M0,0H452.175V440.212H0Z" fill="url(#linear-gradient_7)"/>
          </g>
        </g>
      </g>
      <g   transform="translate(689.603 960.302) rotate(-135)">
        <g   transform="translate(0)" clip-path="url(#clip-path_8)">
          <g  >
            <path   d="M0,0H463.654V451.054H0Z" fill="url(#linear-gradient_8)"/>
          </g>
        </g>
      </g>
      <text id="View_exchanged_Donations" data-name="View exchanged
Donations" transform="translate(535.131 603.624)" fill="#ecf4f8" font-size="30" font-family="Gotham-Bold, Gotham" font-weight="700"><tspan x="0" y="0">View exchanged</tspan><tspan font-size="42"><tspan x="0" y="52">Donations</tspan></tspan></text>
    </g>
  </g>
</svg>
