<svg xmlns="http://www.w3.org/2000/svg" xmlns:xlink="http://www.w3.org/1999/xlink" width="800" viewBox="0 0 800 864.755">
  <defs>
    <clipPath id="clip-path-5">
      <path d="M591.812,407.587v10.9h8.041l-7.97-1.068c-.027.2-.057.394-.128.836-.066.406-.1.624-.139.889a19.9,19.9,0,0,0-.243,3,117.557,117.557,0,0,1-2.918,24.359,122.508,122.508,0,0,1-33.306,62.182c-11.943,12.052-26.243,22.064-43.243,30.618-18.333,9.207-38.491,16.19-61.74,21.752A480.6,480.6,0,0,1,396.6,570.4c-15.493,1.891-29.744,3.14-43.389,3.735-8.393.384-15.1.588-30.242.973-6.644.169-9.612.247-13.318.356a18.1,18.1,0,0,0-2.334.238c-.31.046-.425.062-.514.072l.864,7.994v-8.041h-7.452v8.041l.6-8.018c-.235-.018-.452-.038-.979-.093-1.209-.124-1.792-.173-2.626-.194-19.858-.2-37.928-.87-55.187-2.114a572.088,572.088,0,0,1-66-8.406c-22.154-4.271-41.852-9.728-60.138-16.912-19.192-7.551-35.485-16.488-49.618-27.6-21.711-17.092-36.324-38.182-43.8-63.72a145.893,145.893,0,0,1-5.476-31.182c-.09-1.3-.239-2.568-.469-4.149-.065-.444-.114-.773-.236-1.574-.146-.957-.212-1.4-.284-1.92L8.041,419h8.041V407.587H8.041l7.941,1.267c.049-.3.1-.584.233-1.259a26.729,26.729,0,0,0,.6-4.225,265.872,265.872,0,0,1,8.255-51.741,445.042,445.042,0,0,1,23.907-68.176c13.3-30.573,29.481-61.307,49.14-93.989,19.342-32.121,38.295-59.451,58.687-83.917,16.006-19.173,31.721-35.118,48.375-48.643,15.07-12.272,30.081-21.8,45.776-28.741A134.651,134.651,0,0,1,292.869,16.9c1.205-.113,2.436-.246,3.974-.424.528-.061.967-.112,1.921-.225l1.882-.22-.919-7.988v8.041h8.932V8.041l-1.426,7.914c.075.014.176.035.432.091l.429.093a15.417,15.417,0,0,0,2.179.322c.98.114,2.076.221,4.195.418l.192.018c4.108.382,5.9.575,8.038.9,15.658,2.342,30.907,7.658,46.25,15.879,17.828,9.55,34.624,22.2,51.683,38.426a417.7,417.7,0,0,1,46.882,53.359c32.189,43.077,60.24,90.27,84.745,141.929,13.528,28.514,23.675,55.5,30.6,82.338,5.415,20.863,8.255,38.219,8.541,55.086a18.7,18.7,0,0,0,.376,3.235c.071.392.1.535.115.67l7.96-1.137Zm16.082,0v-.571l-.081-.565c-.057-.4-.1-.662-.208-1.25-.1-.562-.125-.729-.125-.742-.309-18.223-3.344-36.772-9.05-58.757-7.2-27.887-17.7-55.814-31.643-85.2-24.948-52.595-53.543-100.7-86.389-144.659a433.621,433.621,0,0,0-48.686-55.391C413.674,43.29,395.744,29.79,376.542,19.5c-16.9-9.057-33.894-14.98-51.432-17.6-2.531-.39-4.533-.606-8.962-1.018l-.191-.018C313.926.677,312.9.576,311.732.448A2.08,2.08,0,0,1,311.416.4l-.3-.065c-.451-.1-.694-.15-1.033-.211L309.378,0H299.267l-.458.053c-.549.063-.974.113-1.931.226L295,.5c-1.434.166-2.56.287-3.638.389a150.684,150.684,0,0,0-46.906,12.563c-17.1,7.565-33.306,17.85-49.422,30.974-17.516,14.225-33.943,30.893-50.577,50.819C123.483,120.4,104.074,148.39,84.335,181.17c-20,33.254-36.506,64.6-50.1,95.856A460.872,460.872,0,0,0,9.483,347.652a281.814,281.814,0,0,0-8.732,54.87A15,15,0,0,1,.433,404.5c-.169.862-.245,1.266-.333,1.821l-.1.629v12.6l.076.549c.085.615.159,1.108.315,2.136.116.762.162,1.067.219,1.46.177,1.217.283,2.12.34,2.946a161.93,161.93,0,0,0,6.087,34.6c8.437,28.809,25,52.71,49.292,71.836,15.457,12.15,33.105,21.831,53.676,29.925,19.276,7.573,39.91,13.289,62.987,17.738a588.055,588.055,0,0,0,67.867,8.653c17.626,1.27,36.022,1.952,56.073,2.154.159,0,.467.031,1.261.112.675.069.992.1,1.425.132l.6.022h7.886l.431-.047c.373-.04.628-.076,1.15-.153.4-.059.509-.072.494-.072,3.624-.106,6.578-.184,13.2-.352,15.249-.387,22.03-.594,30.55-.984,14.074-.613,28.734-1.9,44.61-3.836a496.518,496.518,0,0,0,55.351-9.674c24.394-5.836,45.7-13.217,65.235-23.028,18.486-9.3,34.2-20.307,47.448-33.671a138.568,138.568,0,0,0,37.609-70.149,133.189,133.189,0,0,0,3.271-27.682,5.355,5.355,0,0,1,.072-.683c.024-.165.045-.3.1-.669.093-.579.138-.87.19-1.256l.071-.532V407.587Z" fill="none"/>
    </clipPath>
    <linearGradient id="linear-gradient-5" x1="0.007" y1="-0.007" x2="0.993" y2="1.007" gradientUnits="objectBoundingBox">
      <stop offset="0"/>
      <stop offset="0" stop-color="#4275ff"/>
      <stop offset="1" stop-color="#83ceff"/>
      <stop offset="1"/>
    </linearGradient>
    <clipPath id="clip-path-6">
      <path d="M644.142,434.875V446.74a30.106,30.106,0,0,0-.477,3.974,137.387,137.387,0,0,1-3.37,28.344,142.075,142.075,0,0,1-38.589,72.005c-14.4,14.534-31.134,25.82-49.355,34.987-22.008,11.053-45.209,18.654-69.1,24.369a532.933,532.933,0,0,1-59.285,10.357c-15.925,1.944-31.909,3.423-47.893,4.12-15.865.725-31.7.986-47.535,1.451-.805.029-1.61.2-2.416.29h-8.111c-1.163-.087-2.326-.261-3.489-.29-20.159-.2-40.348-.87-60.478-2.321a633.525,633.525,0,0,1-72.854-9.284c-22.873-4.41-45.3-10.328-67.009-18.857-20.129-7.92-39.126-17.871-56.213-31.3C33.43,545.262,16.133,520.951,7.306,490.808a167.587,167.587,0,0,1-6.292-35.8C.835,452.427.358,449.874,0,447.292V434.875a48.084,48.084,0,0,0,.805-5.048A298.758,298.758,0,0,1,10.05,371.8,494.613,494.613,0,0,1,36.531,296.26c15.537-35.713,33.937-69.945,54.006-103.308,19.444-32.289,40.5-63.447,64.653-92.429,16.372-19.612,34-38,53.857-54.134,15.925-12.968,32.982-24.166,51.8-32.492A155.443,155.443,0,0,1,309.188.928C311.961.667,314.7.319,317.478,0H327.2a22.965,22.965,0,0,0,2.386.435c4.742.522,9.513.812,14.225,1.538,18.817,2.814,36.412,9.255,53.142,18.219,21.5,11.517,40.527,26.429,58.152,43.2a464.22,464.22,0,0,1,52.008,59.182c36.442,48.768,67.068,101.016,93.132,155.963,13.956,29.417,25.736,59.647,33.877,91.182,5.278,20.337,9.215,40.906,9.572,62A27.913,27.913,0,0,0,644.142,434.875Z" fill="none" clip-rule="evenodd"/>
    </clipPath>
    <linearGradient id="linear-gradient-6" x1="0.007" y1="-0.007" x2="0.993" y2="1.007" xlink:href="#linear-gradient-5"/>
  </defs>
  <g transform="translate(-665.92 -213)">
    <g transform="translate(1254.765 255.136) rotate(60)">
      <g transform="translate(0 0)" clip-path="url(#clip-path-5)">
        <g transform="translate(0 0)">
          <path id="Path_324" data-name="Path 324" d="M0,0H607.894V591.813H0Z" fill="url(#linear-gradient-5)"/>
        </g>
      </g>
    </g>
    <g transform="translate(665.92 535.071) rotate(-30)">
      <g transform="translate(0 0)" clip-path="url(#clip-path-6)">
        <g transform="translate(0 0)">
          <path id="Path_326" data-name="Path 326" d="M0,0H644.142V626.638H0Z" fill="url(#linear-gradient-6)"/>
        </g>
      </g>
    </g>
    <text id="Browse_book_Collections" data-name="Browse book
Collections" transform="translate(1386.533 655.492)" fill="#ecf4f8" font-size="47" font-family="Gotham-Bold, Gotham" font-weight="700"><tspan x="-340" y="0">Browse book</tspan><tspan font-size="64"><tspan x="-390" y="78">Collections</tspan></tspan></text>
  </g>
</svg>
