<svg xmlns="http://www.w3.org/2000/svg" xmlns:xlink="http://www.w3.org/1999/xlink" weight="646.796" viewBox="0 0 646.796 646.796">
  <defs>
    <clipPath id="clip-path-3">
      <path d="M440.212,303.179v8.109h5.981l-5.928-.795c-.02.149-.042.293-.1.622-.049.3-.074.464-.1.661a14.814,14.814,0,0,0-.181,2.228,87.44,87.44,0,0,1-2.171,18.119,91.126,91.126,0,0,1-24.775,46.253c-8.884,8.964-19.52,16.412-32.166,22.775-13.637,6.849-28.631,12.043-45.924,16.18a357.467,357.467,0,0,1-39.841,6.957c-11.524,1.407-22.125,2.336-32.274,2.778-6.243.285-11.233.438-22.495.724-4.942.126-7.15.184-9.906.265a13.457,13.457,0,0,0-1.736.177c-.231.034-.316.046-.382.053l.643,5.946V428.25h-5.543v5.981l.446-5.965c-.175-.013-.337-.029-.728-.069-.9-.092-1.333-.129-1.953-.144-14.771-.149-28.212-.647-41.05-1.573a425.546,425.546,0,0,1-49.093-6.253A251.47,251.47,0,0,1,86.2,407.648C71.928,402.031,59.809,395.384,49.3,387.12c-16.15-12.714-27.019-28.4-32.582-47.4a108.521,108.521,0,0,1-4.073-23.195c-.067-.966-.178-1.91-.349-3.086-.048-.331-.085-.575-.176-1.171-.109-.712-.158-1.042-.211-1.428l-5.925.821h5.981c0-4.253,0-4.253,0-8.486H5.981l5.906.942c.036-.226.075-.434.173-.937a19.883,19.883,0,0,0,.443-3.143,197.765,197.765,0,0,1,6.141-38.487,331.038,331.038,0,0,1,17.783-50.712A598.67,598.67,0,0,1,72.981,140.93c14.387-23.892,28.485-44.221,43.654-62.421,11.906-14.262,23.6-26.122,35.983-36.183a150.06,150.06,0,0,1,34.05-21.379,100.158,100.158,0,0,1,31.18-8.378c.9-.084,1.812-.183,2.956-.315l1.429-.168,1.4-.164-.684-5.942v5.981h6.644V5.981l-1.06,5.886c.056.01.131.026.321.068l.319.069a11.468,11.468,0,0,0,1.621.24c.729.085,1.544.164,3.12.311l.143.013c3.056.284,4.386.428,5.979.673a105.415,105.415,0,0,1,34.4,11.812c13.261,7.1,25.755,16.51,38.444,28.583a310.7,310.7,0,0,1,34.873,39.691C371.7,125.368,392.563,160.472,410.79,198.9c10.062,21.21,17.61,41.281,22.765,61.246,4.028,15.519,6.14,28.429,6.353,40.975a13.9,13.9,0,0,0,.28,2.406c.053.292.071.4.085.5l5.921-.845Zm11.962,0v-.425l-.06-.421c-.042-.295-.076-.492-.155-.93-.075-.418-.093-.542-.093-.552-.23-13.555-2.487-27.352-6.732-43.705-5.355-20.744-13.167-41.517-23.537-63.375-18.557-39.122-39.828-74.907-64.26-107.6a322.555,322.555,0,0,0-36.215-41.2C307.707,32.2,294.369,22.159,280.086,14.508A117.259,117.259,0,0,0,241.829,1.414c-1.883-.29-3.372-.451-6.667-.757L235.02.644c-1.51-.14-2.277-.215-3.142-.311A1.546,1.546,0,0,1,231.643.3l-.221-.048c-.336-.074-.517-.112-.769-.157L230.127,0h-7.521l-.341.039c-.408.047-.725.084-1.436.168l-1.4.164c-1.067.123-1.9.213-2.706.289a112.085,112.085,0,0,0-34.891,9.345,161.873,161.873,0,0,0-36.762,23.04c-13.029,10.581-25.248,22.98-37.621,37.8-15.6,18.714-30.034,39.531-44.717,63.915a610.422,610.422,0,0,0-37.269,71.3A342.812,342.812,0,0,0,7.054,258.6a209.624,209.624,0,0,0-6.5,40.815,11.155,11.155,0,0,1-.236,1.471c-.126.641-.182.942-.248,1.354L0,302.7v9.372l.057.409c.063.457.118.824.235,1.589.086.567.121.794.163,1.086.131.905.21,1.577.253,2.191a120.45,120.45,0,0,0,4.528,25.736C11.51,364.517,23.829,382.3,41.9,396.522c11.5,9.038,24.625,16.239,39.927,22.259a263.263,263.263,0,0,0,46.852,13.194,437.407,437.407,0,0,0,50.482,6.436c13.111.945,26.794,1.452,41.71,1.6.119,0,.347.023.938.084.5.052.738.074,1.06.1l.446.017h5.866l.32-.035c.277-.03.467-.056.856-.114.295-.044.378-.054.368-.053,2.7-.079,4.893-.137,9.819-.262,11.343-.288,16.387-.442,22.725-.732,10.469-.456,21.374-1.412,33.182-2.853a369.313,369.313,0,0,0,41.172-7.2c18.145-4.341,33.994-9.831,48.524-17.129,13.751-6.918,25.442-15.1,35.293-25.045a103.073,103.073,0,0,0,27.975-52.18,99.073,99.073,0,0,0,2.433-20.591,3.976,3.976,0,0,1,.054-.508c.018-.123.033-.22.078-.5.069-.431.1-.647.141-.934l.053-.4v-8.508Z" fill="none"/>
    </clipPath>
    <linearGradient id="linear-gradient-3" x1="0.007" y1="-0.007" x2="0.993" y2="1.007" gradientUnits="objectBoundingBox">
      <stop offset="0"/>
      <stop offset="0" stop-color="#fd5e5e"/>
      <stop offset="1" stop-color="#ff9a8b"/>
      <stop offset="1"/>
    </linearGradient>
    <clipPath id="clip-path-4">
      <path d="M463.653,313.023v8.541a21.667,21.667,0,0,0-.344,2.861,98.888,98.888,0,0,1-2.426,20.4,102.266,102.266,0,0,1-27.776,51.829c-10.368,10.462-22.41,18.585-35.525,25.184-15.842,7.956-32.542,13.427-49.735,17.541a383.616,383.616,0,0,1-42.673,7.455c-11.463,1.4-22.968,2.464-34.474,2.965-11.419.522-22.818.71-34.216,1.044-.58.021-1.159.146-1.739.209h-5.839c-.837-.063-1.674-.188-2.511-.209-14.511-.146-29.043-.626-43.532-1.671a455.993,455.993,0,0,1-52.44-6.682,272.191,272.191,0,0,1-48.233-13.573c-14.489-5.7-28.163-12.863-40.462-22.532-17.666-13.908-30.116-31.407-36.47-53.1A120.63,120.63,0,0,1,.73,327.515c-.129-1.858-.472-3.7-.73-5.555v-8.938a34.612,34.612,0,0,0,.58-3.633,215.046,215.046,0,0,1,6.654-41.764A356.023,356.023,0,0,1,26.3,213.248a639.292,639.292,0,0,1,38.874-74.361c14-23.242,29.15-45.669,46.537-66.531C123.491,58.24,136.177,45,150.473,33.391A164.768,164.768,0,0,1,187.758,10a111.888,111.888,0,0,1,34.8-9.334c2-.188,3.971-.438,5.967-.668h7a16.531,16.531,0,0,0,1.717.313c3.413.376,6.848.585,10.239,1.107a117.467,117.467,0,0,1,38.251,13.114c15.477,8.29,29.172,19.024,41.858,31.094a334.145,334.145,0,0,1,37.436,42.6c26.231,35.1,48.276,72.712,67.037,112.262,10.046,21.175,18.524,42.934,24.385,65.633,3.8,14.638,6.633,29.444,6.89,44.625A20.093,20.093,0,0,0,463.653,313.023Z" fill="none" clip-rule="evenodd"/>
    </clipPath>
    <linearGradient id="linear-gradient-4" x1="0.007" y1="-0.007" x2="0.993" y2="1.007" xlink:href="#linear-gradient-3"/>
  </defs>
  <g transform="translate(-361.75 -313.506)">
    <g transform="translate(596.237 928.748) rotate(-120)">
      <g transform="translate(0)" clip-path="url(#clip-path-3)">
        <g>
          <path d="M0,0H452.175V440.212H0Z" fill="url(#linear-gradient-3)"/>
        </g>
      </g>
    </g>
    <g transform="translate(689.603 960.302) rotate(-135)">
      <g transform="translate(0)" clip-path="url(#clip-path-4)">
        <g>
          <path d="M0,0H463.654V451.054H0Z" fill="url(#linear-gradient-4)"/>
        </g>
      </g>
    </g>
    <text id="View_exchanged_Donations" data-name="View exchanged
Donations" transform="translate(535.131 603.624)" fill="#ecf4f8" font-size="30" font-family="Gotham-Bold, Gotham" font-weight="700"><tspan x="100" y="0">View exchanged</tspan><tspan font-size="42"><tspan x="100" y="52">Donations</tspan></tspan></text>
  </g>
</svg>
