<svg xmlns="http://www.w3.org/2000/svg" xmlns:xlink="http://www.w3.org/1999/xlink" width="435.45" viewBox="0 0 435.45 413.1">
  <defs>
    <clipPath id="clip-path-7">
      <path d="M281.308,193.739v5.182h3.822l-3.788-.508c-.013.1-.027.187-.061.4-.031.193-.047.3-.066.422a9.464,9.464,0,0,0-.116,1.424,55.874,55.874,0,0,1-1.387,11.579,58.232,58.232,0,0,1-15.832,29.557,77.441,77.441,0,0,1-20.555,14.554,134.124,134.124,0,0,1-29.347,10.34,228.429,228.429,0,0,1-25.459,4.446c-7.364.9-14.138,1.493-20.624,1.775-3.989.182-7.178.28-14.375.462-3.158.08-4.569.117-6.33.169a8.6,8.6,0,0,0-1.109.113c-.147.022-.2.029-.244.034l.411,3.8v-3.822H142.7v3.822l.285-3.812c-.112-.008-.215-.018-.465-.044-.575-.059-.852-.082-1.248-.092-9.439-.1-18.028-.414-26.232-1a271.928,271.928,0,0,1-31.372-4A160.7,160.7,0,0,1,55.087,260.5,92.1,92.1,0,0,1,31.5,247.38a58.833,58.833,0,0,1-20.821-30.288,69.348,69.348,0,0,1-2.6-14.822c-.043-.617-.114-1.221-.223-1.972-.031-.211-.054-.367-.112-.748-.069-.455-.1-.666-.135-.912l-3.786.525H7.644c0-2.718,0-2.718,0-5.423H3.822l3.774.6c.023-.145.048-.278.111-.6a12.705,12.705,0,0,0,.283-2.008,126.377,126.377,0,0,1,3.924-24.594,211.543,211.543,0,0,1,11.364-32.406A382.567,382.567,0,0,1,46.637,90.058a316.579,316.579,0,0,1,27.9-39.889A168.028,168.028,0,0,1,97.526,27.048a95.893,95.893,0,0,1,21.759-13.662A64.006,64.006,0,0,1,139.21,8.033c.573-.054,1.158-.117,1.889-.2l.913-.107.895-.1-.437-3.8V7.644h4.246V3.822l-.678,3.762c.035.006.084.017.205.043l.2.044a7.328,7.328,0,0,0,1.036.153c.466.054.987.1,1.994.2l.091.008c1.953.181,2.8.273,3.821.43a67.364,67.364,0,0,1,21.984,7.548,113.261,113.261,0,0,1,24.567,18.265,198.545,198.545,0,0,1,22.285,25.363A394.545,394.545,0,0,1,262.506,127.1a218.5,218.5,0,0,1,14.547,39.138c2.574,9.917,3.924,18.167,4.06,26.184a8.886,8.886,0,0,0,.179,1.538c.034.186.045.254.054.319l3.784-.54Zm7.644,0v-.272l-.038-.269c-.027-.188-.048-.315-.1-.594s-.059-.347-.059-.353c-.147-8.662-1.589-17.479-4.3-27.929a226.01,226.01,0,0,0-15.041-40.5,402.154,402.154,0,0,0-41.064-68.761,206.124,206.124,0,0,0-23.142-26.329A120.755,120.755,0,0,0,178.983,9.271,74.933,74.933,0,0,0,154.535.9c-1.2-.185-2.155-.288-4.26-.484l-.091-.008c-.965-.09-1.455-.137-2.008-.2a.985.985,0,0,1-.15-.021l-.142-.031c-.214-.047-.33-.071-.491-.1L147.057,0h-4.806l-.218.025-.918.107-.895.105c-.682.079-1.217.136-1.729.185a71.625,71.625,0,0,0-22.3,5.972A103.44,103.44,0,0,0,92.7,21.117,175.512,175.512,0,0,0,68.662,45.273,324.072,324.072,0,0,0,40.087,86.116a390.079,390.079,0,0,0-23.816,45.563A219.066,219.066,0,0,0,4.508,165.25,133.955,133.955,0,0,0,.357,191.332a7.129,7.129,0,0,1-.151.94c-.08.41-.116.6-.158.865l-.048.3v5.989l.036.261c.041.292.075.527.15,1.016.055.362.077.507.1.694.084.579.134,1.008.162,1.4a76.97,76.97,0,0,0,2.893,16.446,66.465,66.465,0,0,0,23.43,34.146A99.627,99.627,0,0,0,52.29,267.612a168.232,168.232,0,0,0,29.94,8.432,279.523,279.523,0,0,0,32.26,4.113c8.378.6,17.122.928,26.654,1.024.076,0,.222.015.6.053.321.033.471.047.677.063l.285.011h3.748l.2-.022c.177-.019.3-.036.547-.073l.235-.034c1.722-.05,3.127-.087,6.275-.167,7.249-.184,10.472-.282,14.522-.468,6.69-.291,13.658-.9,21.2-1.823a236.008,236.008,0,0,0,26.31-4.6,141.636,141.636,0,0,0,31.008-10.946,85.01,85.01,0,0,0,22.553-16,65.866,65.866,0,0,0,17.877-33.344,63.3,63.3,0,0,0,1.555-13.158,2.549,2.549,0,0,1,.034-.325c.011-.079.021-.141.05-.318.044-.275.066-.414.09-.6l.034-.253v-5.437Z" fill="none"/>
    </clipPath>
    <linearGradient id="linear-gradient-7" x1="0.007" y1="-0.007" x2="0.993" y2="1.007" gradientUnits="objectBoundingBox">
      <stop offset="0"/>
      <stop offset="0" stop-color="#ffa700"/>
      <stop offset="1" stop-color="#fad961"/>
      <stop offset="1"/>
    </linearGradient>
    <clipPath id="clip-path-8">
      <path d="M307.711,207.743v5.668a14.378,14.378,0,0,0-.228,1.9,65.631,65.631,0,0,1-1.61,13.54,67.87,67.87,0,0,1-18.434,34.4,89.081,89.081,0,0,1-23.577,16.714A151.556,151.556,0,0,1,230.855,291.6a254.6,254.6,0,0,1-28.321,4.948c-7.607.929-15.243,1.635-22.879,1.968-7.579.346-15.143.471-22.708.693-.385.014-.769.1-1.154.139h-3.875c-.556-.042-1.111-.125-1.667-.139-9.63-.1-19.275-.416-28.891-1.109a302.622,302.622,0,0,1-34.8-4.435,180.645,180.645,0,0,1-32.011-9.008,105.272,105.272,0,0,1-26.854-14.954c-11.724-9.23-19.987-20.844-24.2-35.243a80.058,80.058,0,0,1-3.006-17.1C.4,216.128.171,214.908,0,213.675v-5.932a22.971,22.971,0,0,0,.385-2.411A142.719,142.719,0,0,1,4.8,177.614a236.281,236.281,0,0,1,12.65-36.088,424.277,424.277,0,0,1,25.8-49.351A352.444,352.444,0,0,1,74.136,48.021,188.823,188.823,0,0,1,99.864,22.16,109.35,109.35,0,0,1,124.609,6.638,74.256,74.256,0,0,1,147.7.443c1.325-.125,2.635-.291,3.96-.444h4.644a10.984,10.984,0,0,0,1.14.208c2.265.25,4.544.388,6.8.735a77.958,77.958,0,0,1,25.386,8.7,128.6,128.6,0,0,1,27.78,20.636,221.761,221.761,0,0,1,24.845,28.272,436.126,436.126,0,0,1,44.49,74.5,244.019,244.019,0,0,1,16.183,43.558c2.522,9.715,4.4,19.541,4.573,29.616A13.34,13.34,0,0,0,307.711,207.743Z" fill="none"/>
    </clipPath>
    <linearGradient id="linear-gradient-8" x1="0.007" y1="-0.007" x2="0.993" y2="1.007" xlink:href="#linear-gradient-7"/>
  </defs>
  <g transform="translate(-525 -723.53)">
    <g transform="translate(669.476 1114.737) rotate(-120)">
      <g transform="translate(0 0)" clip-path="url(#clip-path-7)">
        <g transform="translate(0 0)">
          <path d="M0,0H288.952V281.308H0Z" fill="url(#linear-gradient-7)"/>
        </g>
      </g>
    </g>
    <g transform="translate(960.45 982.774) rotate(150)">
      <g transform="translate(0 0)" clip-path="url(#clip-path-8)">
        <g transform="translate(0 0)">
          <path d="M0,0H307.711V299.35H0Z" fill="url(#linear-gradient-8)"/>
        </g>
      </g>
    </g>
    <text data-name="Deliver books
Voluntary" transform="translate(723.291 913.551)" fill="#ecf4f8" font-size="25" font-family="Gotham-Bold, Gotham" font-weight="700"><tspan x="-87.463" y="0">Deliver books</tspan><tspan font-size="37"><tspan x="-90.965" y="45">Voluntary</tspan></tspan></text>
  </g>
</svg>
