<svg xmlns="http://www.w3.org/2000/svg" xmlns:xlink="http://www.w3.org/1999/xlink" height="729.049" viewBox="0 0 740.738 729.049">
  <defs>
    <clipPath id="clip-path">
      <path id="Path_327" data-name="Path 327" d="M608.3,410.679v11.205a28.43,28.43,0,0,0-.451,3.753A129.741,129.741,0,0,1,604.67,452.4a134.17,134.17,0,0,1-36.442,68c-13.6,13.726-29.4,24.383-46.609,33.041-20.784,10.438-42.694,17.616-65.252,23.013a503.278,503.278,0,0,1-55.986,9.781c-15.039,1.836-30.133,3.233-45.229,3.89-14.982.685-29.936.932-44.89,1.37-.76.027-1.521.192-2.281.274h-7.66c-1.1-.082-2.2-.247-3.3-.274-19.038-.192-38.1-.822-57.113-2.192a598.275,598.275,0,0,1-68.8-8.767c-21.6-4.164-42.778-9.753-63.28-17.808-19.009-7.479-36.949-16.876-53.086-29.561C31.57,514.924,15.236,491.966,6.9,463.5A158.261,158.261,0,0,1,.958,429.693c-.169-2.438-.62-4.849-.958-7.288V410.679a45.41,45.41,0,0,0,.76-4.767,282.135,282.135,0,0,1,8.73-54.794A467.093,467.093,0,0,1,34.5,279.777c14.672-33.726,32.049-66.054,51-97.56,18.362-30.493,38.244-59.917,61.056-87.286,15.461-18.52,32.1-35.89,50.861-51.123,15.039-12.246,31.147-22.822,48.918-30.685A146.794,146.794,0,0,1,291.985.877C294.6.63,297.2.3,299.814,0H309a21.686,21.686,0,0,0,2.253.411c4.478.493,8.984.767,13.433,1.452,17.77,2.658,34.386,8.74,50.185,17.205,20.305,10.876,38.273,24.959,54.916,40.794a438.392,438.392,0,0,1,49.115,55.89c34.414,46.054,63.337,95.4,87.951,147.286,13.18,27.78,24.3,56.328,31.992,86.108,4.985,19.205,8.7,38.63,9.04,58.547A26.365,26.365,0,0,0,608.3,410.679Z" transform="translate(0 0)" fill="none" clip-rule="evenodd"/>
    </clipPath>
  </defs>
  <g id="Group_167" data-name="Group 167" transform="translate(294.886 58.124)">
    <g id="Group_160" data-name="Group 160" transform="matrix(0.966, -0.259, 0.259, 0.966, -294.886, 99.316)">
      <g id="Group_159" data-name="Group 159" transform="translate(0 0)" clip-path="url(#clip-path)">
        <g id="Group_158" data-name="Group 158" transform="translate(0 0)">
          <path id="Path_326" data-name="Path 326" d="M0,0H608.3V591.773H0Z" fill="rgba(250,217,97,0.35)"/>
        </g>
      </g>
    </g>
    <g id="Group_119" data-name="Group 119" transform="translate(-144 26)">
      <path id="Path_219" data-name="Path 219" d="M236.165,444.146c0,12.783-41.451,23.146-92.583,23.146S51,456.929,51,444.146,92.451,421,143.583,421,236.165,431.363,236.165,444.146Z" transform="translate(-51 93.496)" fill="#1b73f0" opacity="0.2"/>
      <g id="Group_115" data-name="Group 115" transform="translate(14.118 225.228)">
        <path id="Path_220" data-name="Path 220" d="M194.237,337.272c-3.32,36.923,3.845,106.6-3.408,146.2,0,0-9.092,4.2-22.271,1.882s-18.339-118.088-20.034-137.128-8.455-59.016-10.6-68.408c-1.615-7.1.78-20.534-1.214-26.673a4.04,4.04,0,0,0-7.175-1.058c-3.153,4.835-.88,17.224-1.381,47.5-.725,43.674-7.7,66.091-13.013,88.017S97.964,462.23,93.4,474.408c0,0-13.849,8.561-27.33.462,0,0,5.693-72.119,8.891-99.36s7.822-52.81,7.754-80.876c-.022-9.047-.69-19.264-1.526-29.58-1.438-17.57-3.354-35.408-3.377-48.1a78.851,78.851,0,0,1,.324-8c1.793-18.194,103.951,6.622,103.951,6.622C182.4,222.753,197.558,300.35,194.237,337.272Z" transform="translate(-60.257 -202.29)" fill="#1b73f0"/>
        <path id="Path_221" data-name="Path 221" d="M161.166,253.756c-19.239-10.783-54.084-29.183-72.949-23.056a41.4,41.4,0,0,1-12.6,1.872c-.653-9.406-.942-17.685-.352-23.664,1.8-18.192,104.132,7.85,104.132,7.85.1,2.362,4.449,28.775,6.124,39.565C180.92,258.639,174.518,261.239,161.166,253.756Z" transform="translate(-57.393 -202.237)" fill="#0a3e89" opacity="0.34"/>
        <path id="Path_222" data-name="Path 222" d="M145.662,308.99c2.611-18.788,15.01-22.528,23.347-23.192a189.713,189.713,0,0,1-.343,24.536c-1,11.111-1.045,24.287-.823,38.349C159.123,343.357,142.774,329.775,145.662,308.99Z" transform="translate(-34.688 -175.349)" fill="#0a3e89" opacity="0.34"/>
        <path id="Path_223" data-name="Path 223" d="M89.281,316.543c1.951-21.851,21.611-28.633,31.026-30.905-1.4,28.464-5.612,47.007-9.689,63.4C104.551,347.171,87.146,340.454,89.281,316.543Z" transform="translate(-52.826 -175.401)" fill="#0a3e89" opacity="0.34"/>
        <path id="Path_224" data-name="Path 224" d="M174.042,390.747s2.773-5.078-3.941-2.069-32.941,3.984-34.156,5.433-3.612,1.661-1.464,4.694,2.771,5.838,4,12.757-3.046,16.693-1.578,22.47-5.043,14.139.058,17.179,11.347,3.83,15.578,6.142,21.973,5.577,34.831,5.247,19.016-3.559,11.721-10.164-10.312-10.365-17.255-12.975-8.334-9.871-8.318-16.517-1.028-5.211-.017-12.012S174.042,390.747,174.042,390.747Z" transform="translate(-38.464 -142.467)" fill="#001a49"/>
        <path id="Path_225" data-name="Path 225" d="M67.233,383.278s-2.352-4.511,6.5-1.282,32.646,1.488,31.511,5.126-.62,11.782-2.972,14.807.459,5.309-1.342,11.087-3.32,15.168-.6,20.007,11.528,20.265,13.032,28.248-8.75,13.005-22.291,2.209S77.61,449.421,72.98,444.691s-11.546-6.651-11.3-15.732-.049-13.4,1.4-18.817,4.206-9.725,3.186-14.74S67.233,383.278,67.233,383.278Z" transform="translate(-61.674 -144.691)" fill="#001a49"/>
        <path id="Path_226" data-name="Path 226" d="M103,234.381a113.277,113.277,0,0,1-13.783,18.461c-3.186,3.476-6.729,6.819-10.9,8.88-1.438-17.57-3.354-35.408-3.377-48.1a.353.353,0,0,1,.057-.066,3.918,3.918,0,0,1,2.584-.813,60.983,60.983,0,0,1,18.36,1.6c3.732.914,7.721,2.44,9.56,5.827C107.914,224.609,105.6,230.058,103,234.381Z" transform="translate(-57.393 -198.959)" fill="#0a3e89" opacity="0.34"/>
      </g>
      <path id="Path_227" data-name="Path 227" d="M176.253,183.639a14.1,14.1,0,0,1-8.723,1.939,16.4,16.4,0,0,1-2.24-.29,50.581,50.581,0,0,1-10.673-3.788c-4.178-1.816-8.656-3.743-11.1-7.576a20.464,20.464,0,0,1-2.406-6.752,143.838,143.838,0,0,1-3.064-21.692c-.212-3.354-.267-6.9,1.27-9.883,3.41-6.618,12.68-6.863,17.593-1.738,4.355,4.546,3.564,15.041,4.312,20.846a14.765,14.765,0,0,0,.423,2.328,5.287,5.287,0,0,0,.768,1.672,8.761,8.761,0,0,0,2.4,2.073q4.412,2.94,8.813,5.894c2.8,1.871,5.794,4,6.752,7.22C181.456,177.523,179.441,181.59,176.253,183.639Z" transform="translate(-22.952 -0.289)" fill="#ff8bb7"/>
      <path id="Path_228" data-name="Path 228" d="M170.556,177.117a14.1,14.1,0,0,1-8.723,1.939c-1.471-6.818-3.777-13.369-5.427-20.154a20.329,20.329,0,0,1-.723-7.031,9.4,9.4,0,0,1,.267-1.36,5.288,5.288,0,0,0,.768,1.672,8.761,8.761,0,0,0,2.4,2.073q4.412,2.94,8.813,5.894c2.8,1.871,5.794,4,6.752,7.22C175.759,171,173.743,175.068,170.556,177.117Z" transform="translate(-17.255 6.233)" fill="#f268a0"/>
      <path id="Path_229" data-name="Path 229" d="M168.743,143.834c.925,28.164,13.323,113.719,13.323,113.719-35.09,29.55-107.946,12.489-107.946,12.489l-.488-91.58L86.517,90.9c9.693-5.089,57.756-.626,57.756-.626s20.2-.45,26.987,7.95c9.912,12.27,11.335,55.765,11.335,55.765s-6.464,6.464-14.775,3.694" transform="translate(-43.699 -13.783)" fill="#c9dfff"/>
      <path id="Path_230" data-name="Path 230" d="M150.555,120.406l.54,12.97a7.357,7.357,0,0,1-1.231,4.39l-.628.942a5.4,5.4,0,0,0-.906,3.215h0a8.613,8.613,0,0,1-1.714,5.51l-.473.632" transform="translate(-20.307 -3.479)" fill="#b6d7ff"/>
      <path id="Path_231" data-name="Path 231" d="M69.872,197.808c1.383,3.32,3.074,6.753,6.11,8.68a12.133,12.133,0,0,0,9.859,1.005,24,24,0,0,0,8.7-5.206c14.274-12.44,19.855-31.879,30.136-47.778,4.1-6.343,8.975-12.146,13.434-18.243,2.484-3.4,4.908-7.067,5.421-11.245s-1.493-8.958-5.493-10.27c-1.57-.514-3.7-.823-3.992-2.448a2.621,2.621,0,0,1,.4-1.734c.975-1.706,2.812-2.7,4.243-4.051s2.485-3.595,1.4-5.235a3.572,3.572,0,0,0-3.986-1.128,9.822,9.822,0,0,0-3.657,2.448c-6.474,6.014-12.415,13.4-13.505,22.167-.357,2.881-.185,5.871-1.167,8.6a21.368,21.368,0,0,1-4.055,6.216c-7.822,9.389-15.693,18.827-24.971,26.782a71.921,71.921,0,0,0,1.115-19.688c-.319-3.922-1.075-8.064-3.736-10.962-3.834-4.175-10.815-4.347-15.607-1.32-9.441,5.965-9.6,18.942-9.15,28.855C61.9,174.968,65.389,187.049,69.872,197.808Z" transform="translate(-47.696 -10.07)" fill="#ff8bb7"/>
      <path id="Path_232" data-name="Path 232" d="M109.394,88.535S67.277,87.01,64.148,118.579c-1.85,18.663-7,47.486-4.94,52.443,0,0,22.63-3.5,36.418-7.844,0,0,.439-16.841-2.432-23.482" transform="translate(-48.507 -13.765)" fill="#c9dfff"/>
      <path id="Path_233" data-name="Path 233" d="M77.31,104.886c4.894,7.061,9.978,14.693,10.081,23.283a47.544,47.544,0,0,0,.045,5.157c.325,2.684,1.594,5.152,2.35,7.748,1.35,4.641,1.041,9.581.72,14.4a3.145,3.145,0,0,1-2.912,3.5" transform="translate(-42.512 -8.486)" fill="#b6d7ff"/>
      <g id="Group_116" data-name="Group 116" transform="translate(64.649)">
        <path id="Path_234" data-name="Path 234" d="M158.671,52.118c.157,1.361-.008,25.741-5.693,34.213S142.516,97.2,132.318,94.47l-.907,14.365s-6.036,11.359-20.364,5.345A19.235,19.235,0,0,1,99.88,102.131L117.5,45.853Z" transform="translate(-99.88 -27.531)" fill="#ff8bb7"/>
        <path id="Path_235" data-name="Path 235" d="M103.551,87.517c.218,1.7,9.793.4,14.652-3.436s6.088-3.121,5.919-5.825-2.584-1.278-4.1-5.689-.977-10.923,4.718-10.007,5.339,5.259,7.987,3.375.889-8.416,3.37-9.275,4.127-5.208,13.807.407,17.694,11.712,19.405,4.2-6.2-7.74-.606-10.179.36-9.285-10.08-9.08-21.818-16.456-39.668-7.223S98.984,51.784,103.551,87.517Z" transform="translate(-99.362 -32)" fill="#001a49"/>
        <path id="Path_236" data-name="Path 236" d="M127.759,84.061A23.783,23.783,0,0,1,115.9,79.03c-5.011-3.972,1.156,6.181,4.9,8.1a31.932,31.932,0,0,1,6.39,4.347Z" transform="translate(-95.32 -17.122)" fill="#f268a0"/>
        <path id="Path_237" data-name="Path 237" d="M129.309,61.195S125.894,52.655,117.9,54s-5.482,14.961,5.73,21.217S129.309,61.195,129.309,61.195Z" transform="translate(-95.571 -24.948)" fill="#ff8bb7"/>
      </g>
      <g id="Group_117" data-name="Group 117" transform="translate(59.463 67.126)">
        <path id="Path_238" data-name="Path 238" d="M103.077,82.753c-2,.385-5.54,4.858-6.186,8.568l-.869,4.99a4.3,4.3,0,0,0,1.2,3.776l.861.86a5.083,5.083,0,0,1,.664.821l8.272,6.5,4.773-1.591a6.418,6.418,0,0,1,1.821-.327l5.9-.19a.319.319,0,0,0,.071-.628c-14.826-3.926-17.449-14.3-17.449-14.3S103.7,82.633,103.077,82.753Z" transform="translate(-95.959 -82.752)" fill="#b6d7ff"/>
        <path id="Path_239" data-name="Path 239" d="M116.839,104.8a.389.389,0,0,0,.484.579,35.1,35.1,0,0,0,10.64-8.016,6.94,6.94,0,0,0,2.111-3.929,4.7,4.7,0,0,0-.23-1.516c-.639-2.627-.853-4.924-3.075-6.445-.3,2.234.366,8.564-4.653,12.417C119.826,99.65,118.567,102.488,116.839,104.8Z" transform="translate(-89.248 -81.874)" fill="#b6d7ff"/>
      </g>
      <g id="Group_118" data-name="Group 118" transform="translate(122.177 117.93)">
        <path id="Path_240" data-name="Path 240" d="M224.4,154.53l-5.607-32.913-62.715,25.82.574,13.832Z" transform="translate(-139.278 -121.018)" fill="#606060"/>
        <path id="Path_241" data-name="Path 241" d="M222.137,153.38l-5.946-32.216-59.1,24.23,1.5,15.011Z" transform="translate(-138.951 -121.164)" fill="#fff"/>
        <path id="Path_242" data-name="Path 242" d="M217.441,155.259,228.5,149.81s-21.242-14.328-22.684-13.53-62.439,28.035-62.439,28.035l25.085,13.612Z" transform="translate(-143.376 -116.298)" fill="#6478ff"/>
      </g>
      <path id="Path_243" data-name="Path 243" d="M185.081,160.823a6.683,6.683,0,0,1,2.973.688,2.352,2.352,0,0,1,1.206,2.582c-.44,1.349-2.2,1.606-3.385,2.382-1.383.9-2.006,2.576-2.62,4.112-1.512,3.785-3.74,7.645-7.478,9.27a14.018,14.018,0,0,1-6,.927c-3.168-.09-6.724-.988-8.26-3.76a2.934,2.934,0,0,1-.294-2.58,3.091,3.091,0,0,1,2.834-1.472c1.123-.026,2.248.234,3.365.1a1.428,1.428,0,0,0,.791-.287c.507-.447.3-1.262.44-1.923.362-1.746,2.975-2.078,3.66-3.724.414-.995-.019-2.12-.011-3.2C172.34,158.211,181.784,160.594,185.081,160.823Z" transform="translate(-15.502 9.339)" fill="#ff8bb7"/>
    </g>
    <g id="Group_135" data-name="Group 135" transform="translate(54.391 173.123)">
      <g id="Group_121" data-name="Group 121" transform="translate(59.739 208.236)">
        <path id="Path_244" data-name="Path 244" d="M362.257,334.176s2.181-8.29-3.492-13.526-93-19.97-93-19.97l-18.265,32.188Z" transform="translate(-245.739 -300.68)" fill="#1b73f0"/>
        <g id="Group_120" data-name="Group 120" transform="translate(0 24.954)">
          <line id="Line_5" data-name="Line 5" x2="13.806" y2="154.433" transform="translate(114.291 8.543)" fill="none" stroke="#2e53bc" stroke-miterlimit="10" stroke-width="3.367"/>
          <path id="Path_245" data-name="Path 245" d="M259.411,484.15l9.433-160.676-7.149-3.926L246.167,464.781" transform="translate(-246.167 -319.548)" fill="none" stroke="#2e53bc" stroke-miterlimit="10" stroke-width="3.367"/>
          <path id="Path_246" data-name="Path 246" d="M362.621,359.621s6.646,19.351-2.032,21.635-89.05,5.936-100.923-1.828-5.5-27.463-5.5-27.463" transform="translate(-244.139 -309.089)" fill="none" stroke="#2e53bc" stroke-miterlimit="10" stroke-width="3.367"/>
          <path id="Path_247" data-name="Path 247" d="M358.638,345.868l-94.531-1.827-8.433-8.406" transform="translate(-243.1 -314.358)" fill="none" stroke="#2e53bc" stroke-miterlimit="10" stroke-width="3.367"/>
        </g>
      </g>
      <g id="Group_134" data-name="Group 134">
        <g id="Group_123" data-name="Group 123" transform="translate(102.602)">
          <g id="Group_122" data-name="Group 122" transform="translate(0 50.103)">
            <path id="Path_248" data-name="Path 248" d="M291.828,191.625s1.577,6.04.788,9.455-14.041,4.9-14.041,4.9l31.654,43.564,22.048-40.061-6.058-13.327-4.448-.594-2.1-14.447Z" transform="translate(-278.575 -181.118)" fill="#ff8bb7"/>
            <path id="Path_249" data-name="Path 249" d="M297.37,242.868c2.729.869,5.712.189,8.395-.79A37.855,37.855,0,0,0,326.828,222.2a35.766,35.766,0,0,0,2.517-7.749c.167-.824.3-1.659.411-2.493a28.119,28.119,0,0,0,.123-6.49v-.012a20.671,20.671,0,0,0-.345-2.2,17.674,17.674,0,0,0-1.848-5.087,16.193,16.193,0,0,0-9.975-7.4,7.886,7.886,0,0,0-4.287,2.494,9.439,9.439,0,0,0-1.547,4.809,31.485,31.485,0,0,0,.713,10.509,1.814,1.814,0,0,0,3.451.255c.378-.979,3.229.725,2.906,2.449-.645,3.452-2.639,6.49-4.675,9.352-2.483,3.5-5.154,6.969-7.515,10.587a9.645,9.645,0,0,1-12.68,3.272,4.782,4.782,0,0,0-.968,1.86C292.395,239.117,294.643,242,297.37,242.868Z" transform="translate(-273.93 -178.009)" fill="#f2649e"/>
          </g>
          <path id="Path_250" data-name="Path 250" d="M287,187.781l25.11-1.219A9.85,9.85,0,0,1,310.4,199.7C303.693,206.067,287,187.781,287,187.781Z" transform="translate(-275.858 -129.259)" fill="#f2649e"/>
          <path id="Path_251" data-name="Path 251" d="M303.853,152.824c-.985.171-21.285.41-22.865,14.239s-.037,41.42,13.434,40.3,18.989-5.412,22.962-10.43,12.064-12.583,11.877-20.426S321.194,149.819,303.853,152.824Z" transform="translate(-277.959 -140.247)" fill="#ff8bb7"/>
          <path id="Path_252" data-name="Path 252" d="M303.422,167.823c1.165,1.03,2.818,1.226,4.308,1.677a12.047,12.047,0,0,1,7.832,7.667c.848-2.3,4.046-3.189,6.157-1.938a5.671,5.671,0,0,1,2.218,6.453,8.1,8.1,0,0,1-5.089,4.954c-1.054.38-2.283.671-2.846,1.639-.63,1.085-.1,2.447.427,3.582q1.512,3.232,3.022,6.465a1.681,1.681,0,0,0,.525.734c.529.35,1.221.016,1.8-.253a7.91,7.91,0,0,1,5.875-.288c1.07.374,2.139.992,3.258.813a3.712,3.712,0,0,0,2.637-2.842c.378-1.312.394-2.713.819-4.01,1-3.065,4.022-4.951,5.911-7.564,3.657-5.059,2.492-12.507-1.43-17.365-1.446-1.792-3.27-3.415-3.915-5.625-.965-3.312.877-7.407-1.328-10.06-2.33-2.8-7.2-1.509-10.035-3.8-1.688-1.365-2.445-3.862-4.482-4.612-3.246-1.194-6.058,2.992-9.5,3.344-3.523.36-6.727-3.4-10.135-2.438-2.128.6-3.472,2.9-5.62,3.424-1.877.462-3.85-.555-5.759-.247-2.555.414-4.121,2.982-5.156,5.357A52.123,52.123,0,0,0,278.6,172.9c-.015,1.038.29,2.4,1.325,2.475a1.709,1.709,0,0,0,1.217-.549c1.521-1.409,1.834-3.646,2.291-5.669s1.406-4.257,3.391-4.855c.837-.253,1.745-.164,2.592-.382,2.818-.723,4.493-4.429,7.669-3.2C300.33,161.96,301.1,165.768,303.422,167.823Z" transform="translate(-278.566 -143.236)" fill="#6478ff"/>
          <path id="Path_253" data-name="Path 253" d="M305.457,170.462s3.66-7.846,11.1-6.158,4.365,14.35-6.5,19.638S305.457,170.462,305.457,170.462Z" transform="translate(-270.484 -136.517)" fill="#ff8bb7"/>
        </g>
        <g id="Group_132" data-name="Group 132" transform="translate(0 60.977)">
          <g id="Group_127" data-name="Group 127" transform="translate(0 135.248)">
            <path id="Path_254" data-name="Path 254" d="M242.527,297.083c-2.668.227-5.56.635-7.426,2.555a9.676,9.676,0,0,0-2.242,5.156,15.738,15.738,0,0,0,.434,8.225,8.693,8.693,0,0,0,5.782,5.54,13.959,13.959,0,0,0,4.568.085l16.556-1.518c3.493-.32,7.429-.882,9.48-3.728,3.793-5.265-1.059-13.292-6.169-15.809C257.824,294.788,248.542,296.568,242.527,297.083Z" transform="translate(-190.831 -290.162)" fill="#ff8bb7"/>
            <g id="Group_126" data-name="Group 126">
              <path id="Path_255" data-name="Path 255" d="M203.473,319.746a32.249,32.249,0,0,1,20.213-14.832c2.781-.614,5.8-.817,8.093-2.5a21.26,21.26,0,0,0,3.448-3.776c3.246-3.885,7.934-6.736,12.988-7.018,4.378-.243,10.818,2.047,12.291,6.632-4.539.034-8.37.626-12.239,2.837-2.6,4.008-.955,9.857,1.641,13.79.668,1.012,2.4,3.475,2.467,4.686.122,2.317-3.228,2.452-5.3,3.5q-6.829,3.468-13.656,6.934c-6.309,3.2-12.852,6.474-19.917,6.852a14.757,14.757,0,0,1-8.129-1.583,8.341,8.341,0,0,1-4.2-5.849C200.681,328.251,201.163,323.59,203.473,319.746Z" transform="translate(-201 -291.599)" fill="#001a49"/>
              <path id="Path_256" data-name="Path 256" d="M203.473,319.746a32.249,32.249,0,0,1,20.213-14.832c2.781-.614,5.8-.817,8.093-2.5a21.26,21.26,0,0,0,3.448-3.776c3.246-3.885,7.934-6.736,12.988-7.018a15.074,15.074,0,0,1,9.929,3.242,22.794,22.794,0,0,1-11.357,4.09c-2.645.192-5.485-.041-7.757,1.328-1.764,1.062-2.875,2.918-4.384,4.317-5.726,5.308-16.214,3.4-20.88,9.663a4.91,4.91,0,0,0-1.055,2.464c-.175,2.1,1.555,3.787,2.935,5.374a22.043,22.043,0,0,1,5.235,13.378,30.713,30.713,0,0,1-7.376,1.379,14.757,14.757,0,0,1-8.129-1.583,8.341,8.341,0,0,1-4.2-5.849C200.681,328.251,201.163,323.59,203.473,319.746Z" transform="translate(-201 -291.599)" fill="#fff"/>
              <g id="Group_124" data-name="Group 124" transform="translate(32.279 22.814)">
                <path id="Path_257" data-name="Path 257" d="M225.437,313.956a1.153,1.153,0,1,0,1.387-.858A1.153,1.153,0,0,0,225.437,313.956Z" transform="translate(-225.405 -307.487)" fill="#c9dfff"/>
                <path id="Path_258" data-name="Path 258" d="M229.616,312.053a1.153,1.153,0,1,0,1.387-.858A1.153,1.153,0,0,0,229.616,312.053Z" transform="translate(-224.057 -308.101)" fill="#c9dfff"/>
                <path id="Path_259" data-name="Path 259" d="M234.407,308.879a1.154,1.154,0,1,0,.858,1.389A1.153,1.153,0,0,0,234.407,308.879Z" transform="translate(-222.959 -308.848)" fill="#c9dfff"/>
              </g>
              <g id="Group_125" data-name="Group 125" transform="translate(29.898 16.479)">
                <path id="Path_260" data-name="Path 260" d="M223.637,309.166a1.153,1.153,0,1,0,1.387-.858A1.153,1.153,0,0,0,223.637,309.166Z" transform="translate(-223.605 -302.697)" fill="#c9dfff"/>
                <path id="Path_261" data-name="Path 261" d="M227.816,307.263a1.153,1.153,0,1,0,1.387-.858A1.153,1.153,0,0,0,227.816,307.263Z" transform="translate(-222.257 -303.311)" fill="#c9dfff"/>
                <path id="Path_262" data-name="Path 262" d="M232.608,304.09a1.153,1.153,0,1,0,.857,1.386A1.152,1.152,0,0,0,232.608,304.09Z" transform="translate(-221.159 -304.058)" fill="#c9dfff"/>
              </g>
            </g>
          </g>
          <g id="Group_129" data-name="Group 129" transform="translate(77.92 247.674)">
            <path id="Path_263" data-name="Path 263" d="M317.925,399.42a12.457,12.457,0,0,1-.667,5.257c-1.14,2.707-3.846,4.4-6.514,5.625s-5.534,2.231-7.663,4.255c-1.875,1.783-3,4.2-4.64,6.206a23.456,23.456,0,0,1-5.813,4.849c-8.678,5.458-29.537,6.674-31.863,1.321-3.312-7.617,3.735-10.148,9.02-15.329s11.714-9.065,17.07-14.173a9.613,9.613,0,0,0,2.438-3.17c1.147-2.811-.27-5.956-1.7-8.631a6.245,6.245,0,0,1-.862-2.276c-.153-1.592.942-3.045,2.188-4.048,4.588-3.7,11.487-3.332,16.665-.518s8.953,7.621,12.243,12.511" transform="translate(-259.913 -376.602)" fill="#001a49"/>
            <path id="Path_264" data-name="Path 264" d="M267.435,408.844a31.461,31.461,0,0,1,10.316,11.189c7.8-3.1,16-6.5,21.06-13.194,1.981-2.621,3.378-5.633,5.191-8.373s4.19-5.3,7.309-6.335a11.56,11.56,0,0,1,6.464-.078c.064.84.123,1.678.151,2.52a12.457,12.457,0,0,1-.667,5.257c-1.14,2.707-3.846,4.4-6.514,5.624s-5.534,2.233-7.663,4.256c-1.875,1.783-3,4.2-4.64,6.206a23.456,23.456,0,0,1-5.813,4.849c-8.678,5.458-29.537,6.674-31.863,1.321C257.929,415.561,262.69,412.765,267.435,408.844Z" transform="translate(-259.913 -371.754)" fill="#fff"/>
            <g id="Group_128" data-name="Group 128" transform="translate(20.487 23.976)">
              <path id="Path_265" data-name="Path 265" d="M275.4,401.731a1.153,1.153,0,1,0,1.153-1.153A1.153,1.153,0,0,0,275.4,401.731Z" transform="translate(-275.403 -392.843)" fill="#c9dfff"/>
              <path id="Path_266" data-name="Path 266" d="M279.507,399.269a1.153,1.153,0,1,0,1.153-1.153A1.153,1.153,0,0,0,279.507,399.269Z" transform="translate(-274.079 -393.638)" fill="#c9dfff"/>
              <path id="Path_267" data-name="Path 267" d="M282.968,394.73a1.154,1.154,0,1,0,1.153,1.155A1.155,1.155,0,0,0,282.968,394.73Z" transform="translate(-273.334 -394.73)" fill="#c9dfff"/>
            </g>
          </g>
          <path id="Path_268" data-name="Path 268" d="M242.661,322.2a24.593,24.593,0,0,0-1.177,27.845c2.246,3.583,4.347,6.815,5.4,8.108,16.332,20.162,37.472,38.018,44.675,62.944a5.992,5.992,0,0,0,1.315,2.739,5.313,5.313,0,0,0,2.538,1.124,32.043,32.043,0,0,0,30.458-9.986c-5.566-21.43-19.46-38.987-35.725-54.027-3.35-3.095-6.835-6.167-9.207-10.053s-3.506-8.85-1.78-13.069c1.458-3.574,4.542-5.912,8.038-7.76,2.026-1.091,4.2-2,6.268-2.9a122.143,122.143,0,0,0,25.561-15.039c2.627-2.016,5.354-4.465,5.732-7.749.413-3.562-2.248-6.9-5.51-8.393s-6.969-1.5-10.543-1.358a135.987,135.987,0,0,0-27.287,3.952l4.887-1.592c-2.805.813-5.633,1.636-8.449,2.528a136.834,136.834,0,0,0-14.562,4.953l5.622-1.825a62.9,62.9,0,0,0-17.478,9.887,37.468,37.468,0,0,0-3.8,3.617C245.914,318.035,244.232,320.115,242.661,322.2Z" transform="translate(-189.152 -155.391)" fill="#c9dfff"/>
          <path id="Path_269" data-name="Path 269" d="M268.262,331.53c6.109,1.775,9.435.032,15.625-1.46,2.026-1.091,4.2-2,6.268-2.9a122.141,122.141,0,0,0,25.561-15.039c2.627-2.016,5.354-4.465,5.732-7.749.413-3.562-2.248-6.9-5.51-8.393s-6.969-1.5-10.543-1.358a135.987,135.987,0,0,0-27.287,3.952L283,296.994c-2.805.813-5.633,1.636-8.449,2.528a136.829,136.829,0,0,0-14.562,4.953l5.622-1.825a62.9,62.9,0,0,0-17.478,9.887C246.793,313.638,253.832,327.335,268.262,331.53Z" transform="translate(-185.847 -155.391)" fill="#b6d7ff"/>
          <g id="Group_130" data-name="Group 130" transform="translate(43.56)">
            <path id="Path_270" data-name="Path 270" d="M236.53,276.026c-1.606,2.694-3.269,5.825-2.316,8.813a6.94,6.94,0,0,0,5.015,4.341,12.43,12.43,0,0,0,6.819-.518,26.311,26.311,0,0,0,13.012-10.3,52.765,52.765,0,0,0,6.81-15.375c.921-3.156,1.665-6.682.185-9.617-3.239-6.423-13.156-5.067-16.715.2C244.619,260.546,240.879,268.73,236.53,276.026Z" transform="translate(-233.935 -170.073)" fill="#ff8bb7"/>
            <path id="Path_271" data-name="Path 271" d="M242.845,277c2.682,2.894,14.172,6.167,19.014,7.381h.012a19.534,19.534,0,0,0,2.148.467,15.209,15.209,0,0,0,2.316-3.307c3.863-6.924,7.982-19.827,7.526-15.263-.524,5.322-1.86,42.571,4.821,45.4a1.992,1.992,0,0,0,.712.167l64.393,4.575,14.951-15.908L360.161,299c-.267-6.535-.434-14.461.645-19.737.112-.569.212-1.169.3-1.8.033-.312.078-.635.1-.958s.066-.656.089-.991q.05-.552.066-1.136c.034-.456.045-.913.056-1.379.057-1.87.012-3.818-.077-5.745-.022-.534-.057-1.079-.09-1.614-.1-1.626-.222-3.218-.378-4.687-.022-.233-.045-.456-.067-.678s-.044-.435-.066-.645v-.012c-.022-.222-.045-.444-.078-.668s-.045-.434-.066-.645c-.067-.635-.145-1.235-.224-1.792-.011-.167-.033-.312-.056-.468q-.083-.684-.167-1.268c-.033-.224-.056-.423-.089-.612-.123-.891-.212-1.448-.234-1.57l5.154,13.782s2.606-1.09,6.1-2.3c6.379-2.226,15.719-4.887,17.633-2.2a71.246,71.246,0,0,0,1.592-7.47,75.793,75.793,0,0,0-.913-28.677,9.9,9.9,0,0,0-.335-1.514c-.033-.122-.078-.234-.111-.345-.368-1.414-.746-2.816-1.19-4.209l-4.921-5.421c.033.378.078.758.111,1.136-6.3-5.355-15.82-8.372-23.434-11.155a60.938,60.938,0,0,1-7.67-3.229c-.491-.267-.992-.524-1.469-.768a73.732,73.732,0,0,0-11.3-4.632c.156,2.494.645,4.988.857,7.46a18.505,18.505,0,0,1-.144,5.2c-.645,3.451-2.639,6.49-4.675,9.351-2.483,3.5-5.156,6.969-7.515,10.587a9.647,9.647,0,0,1-12.68,3.273,9.426,9.426,0,0,1-3.719-3.619,104.8,104.8,0,0,1-5.366-10.409,65.274,65.274,0,0,1-4.965-16.789,3.694,3.694,0,0,0-4.964-2.938c-11.376,4.312-26.526,10.382-30.638,13.626-6.813,5.378-20.528,60.1-22.844,63.969C242.1,275.83,242.277,276.4,242.845,277Z" transform="translate(-231.248 -187.329)" fill="#ffb000"/>
            <path id="Path_272" data-name="Path 272" d="M268.154,254.014c-.524,5.322-1.86,42.571,4.821,45.4a76.119,76.119,0,0,0,3.974-12.28,99.384,99.384,0,0,0,3.284-18.814c.522-9.507-1.2-18.991-2.939-28.354-.4-2.2-.992-4.677-2.928-5.789a5.25,5.25,0,0,0-3.662-.456c-5.177,1-8.117,6.513-9.453,11.622-2.148,8.149-1.1,15.8-.623,23.935C264.492,262.353,268.611,249.45,268.154,254.014Z" transform="translate(-225.542 -175.066)" fill="#ff9700"/>
            <path id="Path_273" data-name="Path 273" d="M322.98,217.314c4.5,12.112,5.522,25.193,6.311,38.085.735,12,.858,24.057,1.693,36.048.323,4.575,1.815,7.6,3.629,8.839l1.424-1.514c-.267-6.535-.434-14.461.645-19.737,1.837-9.029-.857-25.9-.979-26.674l5.154,13.782s2.606-1.09,6.1-2.3c.144-.924.288-1.86.444-2.783.612-3.818,1.225-7.737.4-11.512-1.19-5.522-5.243-9.9-7.926-14.862-3.707-6.868-4.764-14.817-7.415-22.164s-7.758-14.685-15.407-16.243C316.723,203.61,320.43,210.422,322.98,217.314Z" transform="translate(-207.125 -187.104)" fill="#ff9700"/>
            <path id="Path_274" data-name="Path 274" d="M311.407,207.538a1.814,1.814,0,0,0,3.451.257,4.382,4.382,0,0,1,1.681-2.4,2.774,2.774,0,0,1,1.369-.345,4.835,4.835,0,0,1,.991.056,7.336,7.336,0,0,1,.991.2,9.758,9.758,0,0,1,4.3,2.281,16.035,16.035,0,0,1,3.973,5.834,37.321,37.321,0,0,1,1.893,6.612c2.606,12.591,2.9,25.739,7.2,37.862.446,1.259.935,2.505,1.459,3.73v.012a144.879,144.879,0,0,0,9.063,16.944c2.082,3.517,4.731,7.4,8.783,7.881a9.542,9.542,0,0,0,6.4-1.948c5.644-3.952,8.194-11.322,7.725-18.191a32.192,32.192,0,0,0-2.4-9.92,55.573,55.573,0,0,0-4.9-9.184c-3.742-5.789-8.172-11.11-11.8-16.966-4.453-7.2-8.272-14.862-12.98-21.92a12.622,12.622,0,0,1-1.114-2.115c-1.514-3.452-2.449-7.994-5.021-10.164A37.436,37.436,0,0,0,322.7,189.9a10.187,10.187,0,0,0-6.169-.177,7.873,7.873,0,0,0-4.285,2.493,9.44,9.44,0,0,0-1.547,4.81A31.444,31.444,0,0,0,311.407,207.538Z" transform="translate(-209.223 -189.34)" fill="#ff8bb7"/>
          </g>
          <g id="Group_131" data-name="Group 131" transform="translate(62.173 96.325)">
            <path id="Path_275" data-name="Path 275" d="M387.489,278.718c.082,6.948-3.322,13.522-7.7,18.917s-9.756,9.884-14.553,14.912c-5.477,5.741-10.263,12.243-16.645,16.958a40.351,40.351,0,0,1-43.737,2.038c-3.266-1.971-6.323-4.519-8.055-7.918-4.215-8.27.959-18.7,8.543-24.049s17-7.207,25.77-10.241c12.709-4.4,24.286-11.406,35.392-18.879,4.708-3.169,9.039-8.863,14.436-5.334C385.176,267.894,387.431,273.854,387.489,278.718Z" transform="translate(-232.756 -261.577)" fill="#a5cff9"/>
            <path id="Path_276" data-name="Path 276" d="M392.105,262.653c-8.479-1.9-17.018,2.156-24.874,5.867-37.4,17.67-78.383,27.807-119.223,34.373,4.384,12.778,3.17,20.724,13.1,29.887,17.462,1.68,41.915,1.124,55.835-5.658,9-4.386,17.337-10.132,26.621-13.883,8.5-3.435,17.6-5.116,26.307-7.981s17.351-7.182,22.848-14.52S397.606,269.988,392.105,262.653Z" transform="translate(-248.008 -262.17)" fill="#c9dfff"/>
          </g>
        </g>
        <g id="Group_133" data-name="Group 133" transform="translate(6.576 156.142)">
          <path id="Path_277" data-name="Path 277" d="M214.705,266.72,269.7,283.168l-29.408,8.806L226,283.833Z" transform="translate(-203.154 -259.542)" fill="#f2f2f2"/>
          <path id="Path_278" data-name="Path 278" d="M212.946,262.323l51.359,16.613-28.493,10.272Z" transform="translate(-203.722 -260.96)" fill="#f2f2f2"/>
          <path id="Path_279" data-name="Path 279" d="M281.587,277.38l.59,5.31s-20.85.787-29.112,3.738A53.639,53.639,0,0,0,239.3,293.7l-6.1-2.557-3.344-3.541s-1.377-10.032-8.065-10.622-11.8-14.949-11.8-14.949h4.72s2.951,5.115,5.9,7.671,8.655,4.132,11.409,9.245a49.221,49.221,0,0,0,4.72,7.475l3.345,1.377a30.854,30.854,0,0,1,15.932-7.671C266.244,278.362,281.587,277.38,281.587,277.38Z" transform="translate(-204.676 -261.053)" fill="#fff"/>
          <path id="Path_280" data-name="Path 280" d="M208.922,261.293l-2.951.393L233.9,293.355l3.344-.393Z" transform="translate(-205.972 -261.293)" fill="#ff5d00"/>
        </g>
        <path id="Path_281" data-name="Path 281" d="M275.7,274.2l-43.551,15.582,22.424,9.442L318.7,286.241Z" transform="translate(-190.952 -100.986)" fill="#ff5d00"/>
        <path id="Path_282" data-name="Path 282" d="M225.606,284.646c-1.048-1.147.106-3.523,1.5-3.628s2.592,1.123,3.635,2.279l5.3,5.878a4.522,4.522,0,0,0,1.729,1.389,3.686,3.686,0,0,0,2.07-.122,124.3,124.3,0,0,1,16.562-2.973c3.012-.332,6.214-.507,8.875,1.282a10.017,10.017,0,0,1-4.185,6.134,18.21,18.21,0,0,1-6.314,2.443,81.173,81.173,0,0,1-16.956,2.117,8.987,8.987,0,0,1-4.706-.821,11.274,11.274,0,0,1-3.833-4.552Z" transform="translate(-193.193 -98.789)" fill="#ff8bb7"/>
      </g>
      <path id="Path_283" data-name="Path 283" d="M417.069,439.006c0,9.893-44.116,17.913-98.534,17.913S220,448.9,220,439.006s44.116-17.915,98.534-17.915S417.069,429.111,417.069,439.006Z" transform="translate(-194.87 -53.598)" fill="#1b73f0" opacity="0.2"/>
    </g>
  </g>
</svg>
