<svg xmlns="http://www.w3.org/2000/svg" xmlns:xlink="http://www.w3.org/1999/xlink" width="574.707" height="574.707" viewBox="0 0 574.707 574.707">
  <g id="Group_148" data-name="Group 148" transform="translate(211.904 166.054)">
    <g id="Group_169" data-name="Group 169" transform="translate(-211.904 125.258) rotate(-45)">
      <g id="Group_159" data-name="Group 159" transform="translate(0 0)" clip-path="url(#clip-path)">
        <g id="Group_158" data-name="Group 158" transform="translate(0 0)">
          <path id="Path_326" data-name="Path 326" d="M0,0H608.3V591.773H0Z" fill="rgba(250,217,97,0.35)"/>
        </g>
      </g>
    </g>
    <path id="Path_284" data-name="Path 284" d="M644.005,278.438c0,14.624-55.071,26.481-123,26.481s-123-11.857-123-26.481,55.069-26.483,123-26.483S644.005,263.811,644.005,278.438Z" transform="translate(-398 -0.915)" fill="#1b73f0" opacity="0.2"/>
    <path id="Path_285" data-name="Path 285" d="M525.312,128.132c-3.85-11.142-7.1-23.655-6.552-34.487v0c.282-4.461.324-8.389.55-10.828,1.194-12.91-8.212-17.974-11.6-18.3s-6.4-2.714-17.656-2.324c-10.777.374-18.17,8.055-20.212,18.687-1.648,8.584-.608,13.7.988,21.122.086,2.192.177,10.9-3.4,17-4.115,7.032-9.729,8.272-9.963,25.046s67.841,5.759,67.841,5.759A35.6,35.6,0,0,0,525.312,128.132Z" transform="translate(-378.814 -62.149)" fill="#ff5d00"/>
    <g id="Group_137" data-name="Group 137" transform="translate(59.821 267.419)">
      <path id="Path_286" data-name="Path 286" d="M459.888,269.43a7.454,7.454,0,0,0-1.358,3.148,21.615,21.615,0,0,0,.214,10.455,2.056,2.056,0,0,0,.575,1.1,2.092,2.092,0,0,0,1.194.348,38.085,38.085,0,0,0,13.005-1.27,1.966,1.966,0,0,0,1-.509,2.03,2.03,0,0,0,.348-1.255q.2-4.21.41-8.418a7.044,7.044,0,0,0-.118-2.162C473.84,265.937,462.575,266.186,459.888,269.43Z" transform="translate(-438.467 -263.458)" fill="#fcb4d2"/>
      <g id="Group_136" data-name="Group 136">
        <path id="Path_287" data-name="Path 287" d="M457.877,287.807c-3.291,2.367-8.514,4.781-12.361,3.5a3.262,3.262,0,0,1-1.975-1.489,4.111,4.111,0,0,1-.307-1.8,50.745,50.745,0,0,1,2.422-16.209c.992-3.088,2.71-6.464,5.87-7.2a15.346,15.346,0,0,1,10.282,1.686c4.855,2.983,17.014.934,17.6,1.239,1.377.72,1.755,8.183,1.185,9.627-1.554,3.937-6.4,5.511-10.24,5.994A24.465,24.465,0,0,0,457.877,287.807Z" transform="translate(-443.229 -264.339)" fill="#d38c0d"/>
        <path id="Path_288" data-name="Path 288" d="M453.528,264.362a11.187,11.187,0,0,0-2,.247c-3.16.735-4.878,4.111-5.87,7.2a50.746,50.746,0,0,0-2.422,16.209,4.111,4.111,0,0,0,.307,1.8,3.262,3.262,0,0,0,1.975,1.489c2.37.787,5.264.171,7.905-.971a41.723,41.723,0,0,0,2.464-10.02A30.605,30.605,0,0,0,453.528,264.362Z" transform="translate(-443.229 -264.331)" fill="#ffb000"/>
      </g>
    </g>
    <g id="Group_140" data-name="Group 140" transform="translate(32.68 5.334)">
      <path id="Path_289" data-name="Path 289" d="M481.066,118.84c14.718-.372,29.529-.738,44.085,1.468,4.911.745,9.93,1.845,13.993,4.7,7.6,5.345,10.047,15.367,11.411,24.558.956,6.434,1.659,12.9,2.36,19.372.348,3.2.692,6.473-.013,9.615-.914,4.074-3.5,7.548-6.154,10.771-8.277,10.061-18.08,19.2-29.939,24.6s-26.006,6.7-37.894,1.365a72.4,72.4,0,0,1-11.651-7.073c-4.555-3.189-9.189-6.516-12.283-11.136a38.282,38.282,0,0,1-4.595-10.827c-3.754-13-5.06-26.968-2.435-40.313,1.622-8.244.459-16.595,8.506-20.81A63.853,63.853,0,0,1,481.066,118.84Z" transform="translate(-415.009 -49.284)" fill="#c9dfff"/>
      <g id="Group_139" data-name="Group 139" transform="translate(53.444 2.371)">
        <path id="Path_290" data-name="Path 290" d="M479.134,109.3l-2.229,20.846s12.179,5.928,23.4,0l-2.229-25.291Z" transform="translate(-458.668 -56.075)" fill="#fcb4d2"/>
        <path id="Path_291" data-name="Path 291" d="M478.718,109.3l-.525,6.055c2.394,1.151,5.579,2.084,8.114.307,3.359-2.357,6.961-4.466,11.935-3.014l-.577-7.793Z" transform="translate(-458.252 -56.075)" fill="#ea5e89"/>
        <g id="Group_138" data-name="Group 138">
          <path id="Path_292" data-name="Path 292" d="M490.007,123.832h0a18.512,18.512,0,0,1-18.458-18.457V86.431a18.512,18.512,0,0,1,18.458-18.457h0a18.512,18.512,0,0,1,18.457,18.457v18.944A18.512,18.512,0,0,1,490.007,123.832Z" transform="translate(-460.396 -67.974)" fill="#fcb4d2"/>
          <path id="Path_293" data-name="Path 293" d="M477.67,89.941s-5.829-6.072-12.143-2.186.485,14.571,12.143,16.029S477.67,89.941,477.67,89.941Z" transform="translate(-463.116 -62.012)" fill="#fcb4d2"/>
          <path id="Path_294" data-name="Path 294" d="M498.65,89.941s5.829-6.072,12.143-2.186-.485,14.571-12.143,16.029S498.65,89.941,498.65,89.941Z" transform="translate(-453.324 -62.012)" fill="#fcb4d2"/>
        </g>
      </g>
      <path id="Path_295" data-name="Path 295" d="M470.845,84.41c.136,0,12.825.866,20.715-5.447a4.217,4.217,0,0,1,6.178,1.168c2.867,4.648,7.622,10.736,12.376,9.668,7.545-1.694-4.31-28.64-25.251-22.789S470.845,84.41,470.845,84.41Z" transform="translate(-407.533 -66.181)" fill="#ff5d00"/>
      <path id="Path_296" data-name="Path 296" d="M540.546,136.977c-4.556-7.4-14.688-12.126-24.591-15.1a3.355,3.355,0,0,1,1.069,2.676l-3.062,47.758c5.813,9.9,11.491,20.79,10.674,25.243-.807,4.387-7.72,15.173-13.835,24.069-5.088,7.4-9.623,13.5-9.623,13.5a35.316,35.316,0,0,1,10.991,14.292s5.289-2.846,12.4-7.391c8.068-5.158,18.478-12.5,26.153-20.352C565.152,206.9,550.881,153.754,540.546,136.977Z" transform="translate(-397.394 -48.214)" fill="#c9dfff"/>
      <path id="Path_297" data-name="Path 297" d="M481.765,235.532h0s-6.073-5.837-9.209-8.863c.017.008.038.015.056.021,0,0-2.508-2.41-2.508-2.4s.007.016.008.024c-1.667-1.61-3.309-3.2-4.9-4.747-4.5-4.371-8.584-8.363-11.451-11.229,0,0-1.713-3.19,1.5-8.983a79,79,0,0,1,10.293-14.283c1.373-30.819-2.641-53.687-1.636-61.413-11.38,5.509-13.984,9.618-16.391,12.747-2.744,3.567-32.934,62.948-22.7,80.413,5.851,9.99,12.839,19.9,24.516,28.6,8.737,6.515,20.1,6.308,35.59,11.007,0,0,3.105-12.225,11.171-13.223C496.093,243.2,489.756,243.206,481.765,235.532Z" transform="translate(-422.708 -47.64)" fill="#c9dfff"/>
      <path id="Path_298" data-name="Path 298" d="M425.067,174.476c-2.681,10.771-3.476,20.441-.251,25.944a112.124,112.124,0,0,0,10.6,15.393C448.3,199.989,431.54,180.866,425.067,174.476Z" transform="translate(-422.708 -31.245)" fill="#b6d7ff"/>
      <path id="Path_299" data-name="Path 299" d="M546.328,171.957c-7.241,4.6-19.542,16.3-13.008,40.506a101.821,101.821,0,0,0,7.624-6.954C547.031,199.283,548,186.228,546.328,171.957Z" transform="translate(-387.621 -32.057)" fill="#b6d7ff"/>
      <path id="Path_300" data-name="Path 300" d="M525.074,179.477c-.213-6.3-5.977-8.565-7.471-16.931a17.291,17.291,0,0,0-6.092-10.41l-.668,10.41c5.813,9.9,11.491,20.79,10.674,25.243C521.517,187.79,525.289,185.773,525.074,179.477Z" transform="translate(-394.275 -38.452)" fill="#b6d7ff"/>
      <path id="Path_301" data-name="Path 301" d="M448.781,189.446a79,79,0,0,1,10.293-14.283c.331-7.436.344-14.4.194-20.807a42.787,42.787,0,0,0-8.08,16.4c-3.629,14.09-9.179,14.73-8.326,19,.679,3.39.7,5.166,4.088,7.569C446.69,195.935,446.669,193.259,448.781,189.446Z" transform="translate(-416.235 -37.735)" fill="#b6d7ff"/>
      <path id="Path_302" data-name="Path 302" d="M474.361,124.718a1.989,1.989,0,0,0-.107,1.148,1.847,1.847,0,0,0,.831.887c6.858,4.517,15.673,4.345,23.878,4.013,1.251-.05,2.7-.212,3.366-1.272a3.891,3.891,0,0,0,.417-1.944l.432-11.564a4.062,4.062,0,0,0-.39-2.364c-.759-1.19-2.549-1.242-3.814-.618a25.292,25.292,0,0,0-3.363,2.558c-1.793,1.3-4.358,1.849-6.216.641-1.126-.731-1.828-1.987-2.949-2.725-1.792-1.178-3.7-.581-5.657-.737-1.349-.107-3.19-1.379-4.164-.839C474.634,113.013,475.019,122.479,474.361,124.718Z" transform="translate(-406.095 -51.474)" fill="#b6d7ff"/>
    </g>
    <path id="Path_303" data-name="Path 303" d="M436.483,143.429" transform="translate(-385.585 -35.927)" fill="#c9dfff"/>
    <g id="Group_141" data-name="Group 141" transform="translate(48.229 129.022)">
      <path id="Path_304" data-name="Path 304" d="M559.866,171.8l-13.079-12.1s-30.736-.327-48.392,13.733a43.563,43.563,0,0,0-29.558-11.585H450.432l-11.315,7.844.6,10.409,116.035,9.354Z" transform="translate(-432.964 -159.7)" fill="#fff"/>
      <path id="Path_305" data-name="Path 305" d="M439.117,167.255l.6,10.409h47.691l-2.03-2.924S489.3,168.588,439.117,167.255Z" transform="translate(-432.964 -157.262)" fill="#e6e6e6"/>
      <path id="Path_306" data-name="Path 306" d="M495.75,234.423l-1.113-.036L439.1,232.342l-1.174-15.926-1.368-18.661-2.094-28.4,6.317.206,42.2,1.4h.012l9.016.3.581,9.863Z" transform="translate(-434.465 -156.586)" fill="#6478ff"/>
      <path id="Path_307" data-name="Path 307" d="M548.187,230.68l-55.9,7.842L490.52,182.66l-.194-5.918,53.019-7.794,2.554-.375.666,18.02.666,18.286Z" transform="translate(-416.444 -156.837)" fill="#6478ff"/>
      <path id="Path_308" data-name="Path 308" d="M477.972,170.8a22.32,22.32,0,0,0,16.344,5.23l1.96,61.775c-11.5,1.172-15.669-3.846-15.669-3.846Z" transform="translate(-420.429 -156.119)" fill="#415bd8"/>
    </g>
    <path id="Path_309" data-name="Path 309" d="M540.741,204.368a5.021,5.021,0,0,1-1.946,4.2,9.781,9.781,0,0,0-1.864,1.887c-3.9,5.059-15.152-5.228-19.339-8.6s1.816-9.439,7.044-12.307a14.276,14.276,0,0,1,1.9-.872,10.251,10.251,0,0,1,6.5-.266c1.234.29,2.493.689,3.9.968.1.019.193.037.287.053a3.715,3.715,0,0,1,3.107,3.53Z" transform="translate(-359.87 -21.546)" fill="#fcb4d2"/>
    <path id="Path_310" data-name="Path 310" d="M460.408,211.673c-4.174,3.389-15.441,13.676-19.339,8.617a9.115,9.115,0,0,0-2.645-2.4,4.885,4.885,0,0,1-2.334-3.855c-.249-2.952-.619-7.508-.856-11.152a3.367,3.367,0,0,1,3.736-3.549,6.993,6.993,0,0,0,2.1-.122c4.2-.846,7.068-2.71,12.3.157S464.584,208.285,460.408,211.673Z" transform="translate(-385.99 -18.377)" fill="#fcb4d2"/>
    <g id="Group_142" data-name="Group 142" transform="translate(16.166 205.644)">
      <path id="Path_311" data-name="Path 311" d="M617.663,234.452a21.814,21.814,0,0,0-4.763-7.975c-5.085-4.939-13.046-5.027-20.109-4.425a256.022,256.022,0,0,0-27.783,4.066c-3.422.675-6.9,1.4-10.369,1.048-2.2-.226-2.644-9.532-2.644-9.532l-88.91,4.316s.708,3.08,0,3.661c-5.607,4.607-14.258-2.71-21.42-3.883-4.984-.816-10.054-1.577-15.067-.956s-10.04,2.8-13.044,6.862-3.907,11.209-2.989,16.174c2.377,12.858,17.794,25.135,30.039,29.727,89.111,33.416,119.6-18.946,140.828-20.3,10.482-.668,21.339-1.1,30.748-5.768,2.918-1.447,5.876-3.616,6.507-6.81A11.387,11.387,0,0,0,617.663,234.452Z" transform="translate(-410.223 -217.632)" fill="#022b66"/>
      <path id="Path_312" data-name="Path 312" d="M453.738,225.761c18.875-4.337,38.692,1.714,57.918-.614,8.395-1.016,17.183-3.578,25.052-.48" transform="translate(-396.185 -215.84)" fill="none" stroke="#ffb000" stroke-linejoin="round" stroke-width="0.458" stroke-dasharray="1.83"/>
      <path id="Path_313" data-name="Path 313" d="M485.607,225.416a282.889,282.889,0,0,1,.163,28.927" transform="translate(-385.903 -215.121)" fill="none" stroke="#ffb000" stroke-linejoin="round" stroke-width="0.458" stroke-dasharray="1.83"/>
    </g>
    <g id="Group_143" data-name="Group 143" transform="translate(87.69 211.345)">
      <path id="Path_314" data-name="Path 314" d="M595.46,225.377c-8.269-7.663-27.258-.782-37.463,4.008-9.631,4.519-18.917,9.732-28.193,14.94l-65.5,32.862s2.8,21.938,7,24.271,114.356-35.939,114.356-35.939S621.44,249.455,595.46,225.377Z" transform="translate(-464.301 -221.943)" fill="#00368b"/>
      <path id="Path_315" data-name="Path 315" d="M470.388,293.257c39.075-12.287,75.645-23.828,113.8-38.741a45.754,45.754,0,0,0,10.746-5.361c3.23-2.386,5.9-5.781,6.581-9.738" transform="translate(-462.337 -216.305)" fill="none" stroke="#ffb000" stroke-linejoin="round" stroke-width="0.458" stroke-dasharray="1.83"/>
      <path id="Path_316" data-name="Path 316" d="M496.413,237.423q9.535,8.334,19.072,16.668c2.559,2.238,5.194,4.519,8.376,5.715a21.813,21.813,0,0,0,8.63,1.059c9.115-.4,17.9-3.475,26.936-4.71s19.17-.25,25.71,6.112" transform="translate(-453.941 -216.949)" fill="none"/>
      <path id="Path_317" data-name="Path 317" d="M569.787,253.8c-9.04,1.235-17.821,4.312-26.936,4.71a21.814,21.814,0,0,1-8.63-1.059c-3.182-1.194-5.817-3.477-8.376-5.715l-9.286-8.114L464.3,269.834s2.8,21.938,7,24.271,114.356-35.939,114.356-35.939a42.518,42.518,0,0,0,4.06-2.189C583.737,253.192,576.468,252.885,569.787,253.8Z" transform="translate(-464.301 -214.95)" fill="#022b66" opacity="0.37"/>
    </g>
    <g id="Group_145" data-name="Group 145" transform="translate(141.612 264.889)">
      <path id="Path_318" data-name="Path 318" d="M520.383,262.966a10.1,10.1,0,0,0-3.476-.534c-3.685.132-6.888,2.719-8.949,5.777a15.526,15.526,0,0,0-2.83,10.006c.832,8.6,8.631,9.844,16.179,9.84a38.874,38.874,0,0,0,2-9.779A30.021,30.021,0,0,0,520.383,262.966Z" transform="translate(-505.07 -262.426)" fill="#fcb4d2"/>
      <g id="Group_144" data-name="Group 144" transform="translate(15.313 0.54)">
        <path id="Path_319" data-name="Path 319" d="M568.188,277.22c-2.394-4.738-7.247-7.889-12.373-9.264s-10.543-1.168-15.821-.6c-4.693.505-9.561,1.274-14.039-.22-3.222-1.074-6.146-3.283-9.306-4.3a30.021,30.021,0,0,1,2.923,15.309,38.874,38.874,0,0,1-2,9.779c3.235,0,6.425-.23,9-.209,10.988.086,21.838,4.312,32.74,2.924,3.838-.488,8.028-2.054,9.552-5.61A9.413,9.413,0,0,0,568.188,277.22Z" transform="translate(-516.648 -262.834)" fill="#d38c0d"/>
        <path id="Path_320" data-name="Path 320" d="M561.748,276.223c-2.394-4.738-7.247-7.889-12.373-9.264a37.469,37.469,0,0,0-12.042-.925,34.278,34.278,0,0,0,3.461,23.335,46.943,46.943,0,0,0,12.078.271c3.838-.488,8.028-2.054,9.552-5.61A9.413,9.413,0,0,0,561.748,276.223Z" transform="translate(-510.208 -261.837)" fill="#ffb000"/>
      </g>
    </g>
    <g id="Group_147" data-name="Group 147" transform="translate(15.538 209.586)">
      <g id="Group_146" data-name="Group 146">
        <path id="Path_321" data-name="Path 321" d="M419.206,224.047c8.269-7.663,27.258-.782,37.463,4.008,9.631,4.519,18.917,9.733,28.193,14.94l62.2,30.856s-3.4,23.511-7.6,25.845-110.451-35.508-110.451-35.508S393.226,248.125,419.206,224.047Z" transform="translate(-409.748 -220.613)" fill="#00368b"/>
      </g>
      <path id="Path_322" data-name="Path 322" d="M410.071,233.669c3.538,6.8,7.2,13.77,12.939,18.854,6.646,5.886,15.4,8.668,23.884,11.3l32.183,9.976,58.27,18.691" transform="translate(-409.644 -216.401)" fill="none" stroke="#ffb000" stroke-linejoin="round" stroke-width="0.458" stroke-dasharray="1.83"/>
    </g>
  </g>
</svg>
