<svg xmlns="http://www.w3.org/2000/svg" xmlns:xlink="http://www.w3.org/1999/xlink" width="617.46" height="612.919" viewBox="0 0 617.46 612.919">
  <g id="Group_114" data-name="Group 114" transform="translate(-787.352 123.123)">
    <path id="Path_189" data-name="Path 189" d="M831.019,438.271c0,11.569-95.368,20.949-213.01,20.949S405,449.84,405,438.271s95.368-20.95,213.009-20.95S831.019,426.7,831.019,438.271Z" transform="translate(421 -42.617)" fill="#1b73f0" opacity="0.2"/>
    <g id="Group_168" data-name="Group 168" transform="translate(1009.425 -123.123) rotate(30)">
      <g id="Group_159" data-name="Group 159" transform="translate(0 0)" clip-path="url(#clip-path)">
        <g id="Group_158" data-name="Group 158" transform="translate(0 0)">
          <path id="Path_326" data-name="Path 326" d="M0,0H608.3V591.773H0Z" fill="rgba(250,217,97,0.35)"/>
        </g>
      </g>
    </g>
    <g id="Group_113" data-name="Group 113" transform="translate(826.351 142)">
      <path id="Path_190" data-name="Path 190" d="M738.728,441.323l-38.323,4.326a247.2,247.2,0,0,1-31.548,1.506c-26.185-.442-62.374-8.88-74.352-6.251-48.724,10.7-140.694,8.535-140.694,8.535l1.906-16.288,1.348-11.577s12.561-.555,29.53-1.524c30.95-1.754,76.545-4.873,87.307-8.4,2.821-.923,8.2-2.312,15.2-3.976,34.254-8.154,107.171-22.975,107.171-22.975Z" transform="translate(-414.604 -201.141)" fill="#2e53bc"/>
      <path id="Path_191" data-name="Path 191" d="M588.937,402.069c-2.632,1.914-5.737,3.465-7.624,4.687-6.021,3.855-12.083,7.719-18.708,10.408-7.149,2.9-14.811,4.355-21.951,7.29-6.748,2.758-12.918,6.79-19.743,9.338-7.515,2.816-15.6,3.736-23.6,4.333a313.407,313.407,0,0,1-41.626.3c-.446-.023-.913-.069-1.378-.138l1.249-10.741c7.331-4.726,15.646-7.8,23.908-10.692,2.325-.817,4.648-1.612,6.97-2.408,30.95-1.754,76.545-4.873,87.307-8.4C576.562,405.122,581.94,403.733,588.937,402.069Z" transform="translate(-414.444 -195.537)" fill="#284c8c"/>
      <path id="Path_192" data-name="Path 192" d="M654.224,347.724c.458,8.047-3.44,15.735-8.261,22.193s-10.66,12.147-15.05,18.905c-1.594,2.452-2.953,5.8-1.165,8.118a6.005,6.005,0,0,0,3.672,1.947c5.322,1.061,10.732-1.159,15.479-3.789,11.84-6.565,22.156-16.222,28.35-28.26,2.83-5.5,4.8-11.587,4.632-17.773s-2.693-12.478-7.549-16.312c-4.357-3.439-12.618-5.059-17.718-2.092C650.608,334.155,653.908,342.2,654.224,347.724Z" transform="translate(-358.118 -219.074)" fill="#ff9700"/>
      <path id="Path_193" data-name="Path 193" d="M660.608,349.111c-3.149,6.741-2.873,14.69-6.021,21.432-3.849,8.241-12.22,13.495-16.9,21.294a12.923,12.923,0,0,0-2.114,6.194,6.333,6.333,0,0,0,2.813,5.645,8.244,8.244,0,0,0,4.062.886c8.231.124,16-3.914,22.5-8.958,13.508-10.475,23.273-26.246,24.68-43.282.475-5.744-1.082-20.438-9.5-20.264C673.1,332.2,663.3,343.347,660.608,349.111Z" transform="translate(-355.966 -218.124)" fill="#d38c0d" opacity="0.22"/>
      <path id="Path_194" data-name="Path 194" d="M703.668,395.079s-84.554-40.624-100.042-39.345S481.618,420.69,481.618,420.69l22.614,18.461s71.4-25.082,95.807-31.806c20.441-5.629,103.627,41.219,122.132,43.231S772.1,438.844,772.1,438.844Z" transform="translate(-405.633 -210.495)" fill="#6478ff"/>
      <g id="Group_107" data-name="Group 107" transform="translate(231.012 72.158)">
        <g id="Group_105" data-name="Group 105" transform="translate(0 82.407)">
          <path id="Path_195" data-name="Path 195" d="M611.586,365.311l-9.365-2.44a2.71,2.71,0,0,0-2.939,4.115,40.794,40.794,0,0,0,8.754,9.04c13.155,10.669,28.137,19.294,44.42,23.953,2.963.848,1.548-15.772,1.168-17.12-1.164-4.128-3.158-10.3-7.409-12.247-3.8-1.743-9.528-.591-13.574-.988C625.5,368.924,618.511,367.115,611.586,365.311Z" transform="translate(-598.831 -362.778)" fill="#ffb000"/>
          <g id="Group_104" data-name="Group 104" transform="translate(25.938 6.45)" opacity="0.54">
            <path id="Path_196" data-name="Path 196" d="M618.444,375.886a102.558,102.558,0,0,0,15.62-7.846c-2.688-.032-5.484.231-7.751.009-1.081-.1-2.157-.243-3.23-.4C620.574,369.831,618.378,372.623,618.444,375.886Z" transform="translate(-618.443 -367.654)" fill="#d38c0d" opacity="0.22"/>
            <path id="Path_197" data-name="Path 197" d="M645.681,381.126c-1.164-4.128-3.158-10.3-7.409-12.247a10.045,10.045,0,0,0-2.5-.734c-2.472,4.4-5.334,8.593-9.512,11.322-1.309.854-2.926,1.9-2.8,3.459.1,1.253,1.309,2.071,2.025,3.106a5.917,5.917,0,0,1,.517,5.018,111.218,111.218,0,0,0,18.512,7.2C647.476,399.094,646.061,382.474,645.681,381.126Z" transform="translate(-616.827 -367.496)" fill="#d38c0d" opacity="0.22"/>
          </g>
        </g>
        <g id="Group_106" data-name="Group 106" transform="translate(11.378)">
          <path id="Path_198" data-name="Path 198" d="M746.174,331.724c2.624,13.852.462,28.131-2.186,41.978s-5.8,27.792-5.129,41.875c.251,5.3,1.045,10.594.768,15.9a50.822,50.822,0,0,1-3.5,15.41c-3.238,8.467-8.5,16.662-16.587,20.762a40.193,40.193,0,0,1-10.283,3.264,103.092,103.092,0,0,1-77.582-15.686c-6.506-4.439-12.811-9.762-19.612-13.644a9.066,9.066,0,0,1-.194-15.7,138.974,138.974,0,0,1,32.075-14.02c5.144-1.509,10.488-2.77,14.942-5.753,9.889-6.628,12.765-19.673,14.465-31.454s3.62-24.749,12.623-32.536c4.161-3.6,28.892-37.376,33.572-40.283,5.011-3.113,8.294-.417,12.4,3.264C739.559,311.941,744.286,321.756,746.174,331.724Z" transform="translate(-607.434 -300.471)" fill="#ffb000"/>
          <path id="Path_199" data-name="Path 199" d="M700.091,417.135c-1.75,2.575-3.418,5.646-6.413,6.5-4,1.138-8.264-2.357-12.246-1.155-2.334.7-3.931,2.858-6.1,3.966-3.423,1.748-7.682.656-11.283,2-4.1,1.528-6.095,5.48-7.064,9.924a101.7,101.7,0,0,0,36.287-.631,40.194,40.194,0,0,0,10.283-3.264c8.084-4.1,13.349-12.295,16.587-20.762a55.888,55.888,0,0,0,2.924-10.409c-1.18.208-2.348.414-3.467.657A32.114,32.114,0,0,0,700.091,417.135Z" transform="translate(-591.45 -267.298)" fill="#d38c0d" opacity="0.22"/>
        </g>
        <path id="Path_200" data-name="Path 200" d="M610.935,435.2c13.332-9.827,31.093-11.639,45.085-20.5a51.977,51.977,0,0,0,22.7-32.441c1.131-5.19,1.467-10.587,3.346-15.555,2.7-7.149,8.317-12.721,12.968-18.786a80.927,80.927,0,0,0,12.435-23.32c2.35-6.966,3.939-14.594,9.037-19.892" transform="translate(-594.927 -299.107)" fill="none" stroke="#ff9700" stroke-miterlimit="10" stroke-width="0.824"/>
        <path id="Path_201" data-name="Path 201" d="M707.347,308.152c-4.464,2.912-7.088,7.9-9.184,12.8a140.043,140.043,0,0,0-8.56,28.641c-1.017,5.29-1.8,10.667-3.67,15.717s-4.992,9.848-9.635,12.578c-5.645,3.321-12.706,3.143-19.108,1.758a15.567,15.567,0,0,0-4.486-.581c-5.257.419-8.209,7.1-6.47,12.077s6.583,8.212,11.485,10.154a42.832,42.832,0,0,0,27.423,1.309,28.436,28.436,0,0,0,12.886-7.331c3.3-3.489,5.316-7.975,7.265-12.368q7.368-16.6,14.735-33.191c2.9-6.526,5.827-13.167,6.748-20.248C728.157,318.844,721.389,298.994,707.347,308.152Z" transform="translate(-583.701 -298.751)" fill="#d38c0d" opacity="0.22"/>
      </g>
      <path id="Path_202" data-name="Path 202" d="M645.735,367.492s-2.976-1.682-7.6-8.131-9.052-8.457-12.234-12.005-7.821-8.682-6.968-3.849,6.618,10.08,2.5,9.6S604,339.643,601.518,340.214c-3.2.737,10.077,17.193,19.61,27.885s9.664,10.263,19.86,14.964S671.489,374.568,645.735,367.492Z" transform="translate(-367.11 -215.498)" fill="#fcb4d2"/>
      <path id="Path_203" data-name="Path 203" d="M643.747,266.288c-.373,2.62,0,5.408-1.082,7.825-1.536,3.427-5.79,5.621-5.882,9.377-.1,4.063,4.714,6.436,6.19,10.224,2.087,5.355-3.087,11.025-2.538,16.747.253,2.637,1.7,4.988,3.113,7.231.27.43.6.9,1.1.977a1.775,1.775,0,0,0,1.372-.665c2.5-2.371,4.9-5.14,8.209-6.109,2.726-.8,5.634-.237,8.473-.122s6.024-.41,7.732-2.68c1.365-1.816,1.422-4.269,1.361-6.54q-.107-4.095-.477-8.178a31.977,31.977,0,0,0-1.858-9.15c-1.34-3.314-3.615-6.151-5.858-8.936l-8.621-10.7C651.459,261.217,644.876,258.368,643.747,266.288Z" transform="translate(-355.576 -240.952)" fill="#6478ff"/>
      <g id="Group_108" data-name="Group 108" transform="translate(293.744 15.159)">
        <path id="Path_204" data-name="Path 204" d="M659.081,294.962s9.627,8.629,8.614,17.648c-1.5,13.336,24.406-8.1,24.406-8.1l-19.768-24.086Z" transform="translate(-642.126 -249.941)" fill="#fcb4d2"/>
        <path id="Path_205" data-name="Path 205" d="M663.623,298.455s6.911-1.1,10.433-5.875c0,0,.164,5.7-8.2,11.306Z" transform="translate(-640.661 -246.019)" fill="#fc86bc"/>
        <path id="Path_206" data-name="Path 206" d="M662.07,259.343s-15.176,4.652-15.781,14.756,9.13,38.438,20.441,36.82,15.99-10.349,20.212-16.771C704.629,267.249,674.715,251.64,662.07,259.343Z" transform="translate(-646.262 -257.376)" fill="#fcb4d2"/>
      </g>
      <g id="Group_109" data-name="Group 109" transform="translate(284.135 62.739)">
        <path id="Path_207" data-name="Path 207" d="M644.715,365.52c.4,1.141,1,2.457,2.194,2.669a3.033,3.033,0,0,0,2.49-1.11c2.419-2.389,3.656-5.847,6.325-7.953a21.063,21.063,0,0,1,4.939-2.531,52.973,52.973,0,0,0,21.947-17.5,44.713,44.713,0,0,1,4.929-6.323,54.7,54.7,0,0,1,6.118-4.514,37.226,37.226,0,0,0,13.069-17.134,11.784,11.784,0,0,0,.894-6.47c-.69-3.232-3.7-5.617-6.932-6.322a17.2,17.2,0,0,0-9.7,1.2c-5.408,2.078-10.323,5.585-16.03,6.581-6.253,1.092-13.1-.9-18.8,1.9-7.922,3.9-13.484,17.89-16.006,25.979C636.88,344.5,641.236,355.675,644.715,365.52Z" transform="translate(-638.996 -291.833)" fill="#02132b"/>
        <path id="Path_208" data-name="Path 208" d="M674.272,306.548c2.948-1.188,5.4-3.312,8-5.141a46,46,0,0,1,19.781-7.868c4.226-.614,9.687.138,10.937,4.22.692,2.258-.284,4.7-1.608,6.653-2.791,4.116-7.073,6.982-10.224,10.83-2.292,2.8-3.939,6.064-5.921,9.092A48.241,48.241,0,0,1,670.2,343.55c-5.809,1.913-12.23,2.674-18.011.673S641.492,337,641.177,330.891c-.212-4.116,1.581-8.047,3.453-11.718,1.972-3.863,4.158-7.756,7.508-10.511C659.908,302.272,666.427,309.705,674.272,306.548Z" transform="translate(-638.298 -293.35)" fill="#042956"/>
      </g>
      <g id="Group_110" data-name="Group 110" transform="translate(261.846 77.945)">
        <path id="Path_209" data-name="Path 209" d="M729.8,406.7c-4.715,5.211-9.995,10.152-16.46,12.926-7.559,3.239-16.053,3.243-24.281,3-23.312-.684-47.767-3.326-66.916-16.652a128.927,128.927,0,0,1,13.14-27.291,4.536,4.536,0,0,1,1.924-1.961,4.625,4.625,0,0,1,3.14.295q5.44,1.807,10.974,3.28,8.138,2.194,16.444,3.665,6.345,1.1,12.763,1.813c3.115.339,6.378.586,9.3-.54,5.894-2.279,8.168-8.862,9.4-15.3.239-1.233.434-2.445.6-3.637.188-1.288.386-2.578.6-3.854q2.391-15.365,5.972-30.493c1.85-7.839,4.168-16.046,9.983-21.626,9.217-8.862,15.612-7.545,24.612,8.208C748.506,331.68,742.324,392.848,729.8,406.7Z" transform="translate(-622.144 -304.847)" fill="#ff9700"/>
        <path id="Path_210" data-name="Path 210" d="M698.855,368.407c-3.356,3.863-7.825,6.665-11.015,10.668-2.067,2.6-3.707,5.777-6.7,7.215-3.818,1.831-8.3.134-12.176-1.6-8.789-3.931-17.849-8.323-23.646-16.017a4.659,4.659,0,0,1-1.118-2.427q8.138,2.194,16.444,3.665,6.345,1.1,12.763,1.813c3.115.339,6.378.586,9.3-.54,5.894-2.279,8.168-8.862,9.4-15.3.239-1.233.434-2.445.6-3.637.188-1.288.386-2.578.6-3.854C701.854,349.69,706.126,360.054,698.855,368.407Z" transform="translate(-615.027 -290.798)" fill="#d38c0d" opacity="0.15"/>
      </g>
      <path id="Path_211" data-name="Path 211" d="M461.91,405.693c-4.027-2.061-6.737-6.376-11.049-7.744a4.2,4.2,0,0,0-2.856-.071c-1.9.79-2.209,3.329-2.051,5.38a37.7,37.7,0,0,0,26.5,32.49c3.086.886,7.546-1.208,8.9,1.7.741,1.6-6.449,9.5-5.407,10.918,2.053,2.793,12.682-1.729,15.687-3.457l9.925-5.708c1.611-.927,12.7-9.418,13.735-10.959,1.327-1.968,1.4-4.527,1.04-6.871-.829-5.4-3.644-10.267-6.4-14.987-3.337-5.7-6.825-9.158-14.259-5.711C488.436,404.031,477.091,413.458,461.91,405.693Z" transform="translate(-417.15 -196.961)" fill="#02132b"/>
      <path id="Path_212" data-name="Path 212" d="M446.9,408.523a41.5,41.5,0,0,1-10.4-19.19c-.495-1.972-1.14-4.3-3.058-4.97a3.949,3.949,0,0,0-4.156,1.465,10.8,10.8,0,0,0-1.833,4.279,104.32,104.32,0,0,0-3.287,25.524,22.314,22.314,0,0,0,1.174,8.45c2.543,6.337,9.836,9.738,12.534,16.012a6.972,6.972,0,0,1,.643,3.825c-.378,2.342-8.064,4.5-7.638,6.835.5,2.763,9.577,3.515,12.382,3.658a84.487,84.487,0,0,0,17.5-.926c2.869-.454,5.973-1.213,7.717-3.535,1.508-2.008,1.627-4.7,1.685-7.21.131-5.608,2.174-21.17-3.334-24.693-2.353-1.5-6.535-1.275-9.212-2.352A32.042,32.042,0,0,1,446.9,408.523Z" transform="translate(-424.167 -201.302)" fill="#02132b"/>
      <g id="Group_111" data-name="Group 111" transform="translate(210.914 93.403)">
        <path id="Path_213" data-name="Path 213" d="M583.928,319.551l3.748-3.016,12,14.516,29.532-8.308.212,5.2-32.635,7.791Z" transform="translate(-583.541 -316.534)" fill="#fff"/>
        <path id="Path_214" data-name="Path 214" d="M596.868,331.326l28.372-6.167,41.385,37.581-29,7.267Z" transform="translate(-579.366 -313.752)" fill="#ff5d00"/>
        <line id="Line_4" data-name="Line 4" x2="14.723" y2="17.49" transform="translate(0 3.185)" fill="none" stroke="#ff5d00" stroke-miterlimit="10" stroke-width="1.648"/>
        <path id="Path_215" data-name="Path 215" d="M598.539,329.822a6.221,6.221,0,0,1-6.85.75l44.044,39.959L639.3,368.5Z" transform="translate(-581.037 -312.247)" fill="#dd4d05"/>
        <path id="Path_216" data-name="Path 216" d="M618.16,321.228l42.033,37.939-.436,4.841-41.385-37.581Z" transform="translate(-572.497 -315.02)" fill="#f2f2f2"/>
      </g>
      <g id="Group_112" data-name="Group 112" transform="translate(292.525)">
        <path id="Path_217" data-name="Path 217" d="M655.442,268.824c3.482.675,5.745,1.789,7.081,5.075,1.159,2.85,1.274,6.252,3.371,8.5,3.792,4.074,11.811,2.038,14.85,6.7,1.616,2.477.972,5.786-.164,8.518s-2.73,5.379-2.891,8.334c-.217,3.977,2.215,7.61,4.936,10.52.55.587,1.339,1.21,2.074.885a2.266,2.266,0,0,0,.886-1.009c2.465-4.092,7.712-5.714,12.485-5.513,3.669.155,8.015.934,10.445-1.819,1.823-2.063,1.624-5.238,2.99-7.628,2.427-4.247,8.623-4.506,12.077-7.971a3.025,3.025,0,0,0,1.079-2.315c-.206-1.935-2.85-2.176-4.776-2.457a10.067,10.067,0,0,1-8.328-9.081c-.114-1.94.348-3.932-.157-5.809-1.074-3.994-5.792-5.62-8.57-8.684-2.542-2.8-27.529-35.815-52.82-8.245-1.952,2.128-5.121,7.446-4.616,10.532C646.029,271.238,651.8,268.118,655.442,268.824Z" transform="translate(-645.34 -245.914)" fill="#6478ff"/>
        <path id="Path_218" data-name="Path 218" d="M664.381,275.919s.061-9.2,7.991-10.861,10.568,11.927,2.414,21.844S664.381,275.919,664.381,275.919Z" transform="translate(-639.198 -239.783)" fill="#fcb4d2"/>
      </g>
    </g>
  </g>
</svg>
